<?xml version="1.0" encoding="UTF-8" standalone="no"?>
<svg
   xmlns:dc="http://purl.org/dc/elements/1.1/"
   xmlns:cc="http://creativecommons.org/ns#"
   xmlns:rdf="http://www.w3.org/1999/02/22-rdf-syntax-ns#"
   xmlns:svg="http://www.w3.org/2000/svg"
   xmlns="http://www.w3.org/2000/svg"
   xmlns:sodipodi="http://sodipodi.sourceforge.net/DTD/sodipodi-0.dtd"
   xmlns:inkscape="http://www.inkscape.org/namespaces/inkscape"
   width="16px"
   height="16px"
   version="1.1"
   id="svg3105"
   inkscape:version="0.48.4 r9939"
   sodipodi:docname="猴.svg">
  <metadata
     id="metadata3113">
    <rdf:RDF>
      <cc:Work
         rdf:about="">
        <dc:format>image/svg+xml</dc:format>
        <dc:type
           rdf:resource="http://purl.org/dc/dcmitype/StillImage" />
      </cc:Work>
    </rdf:RDF>
  </metadata>
  <defs
     id="defs3111" />
  <sodipodi:namedview
     pagecolor="#ffffff"
     bordercolor="#666666"
     borderopacity="1"
     objecttolerance="10"
     gridtolerance="10"
     guidetolerance="10"
     inkscape:pageopacity="0"
     inkscape:pageshadow="2"
     inkscape:window-width="640"
     inkscape:window-height="480"
     id="namedview3109"
     showgrid="false"
     inkscape:zoom="14.75"
     inkscape:cx="8"
     inkscape:cy="8"
     inkscape:window-x="348"
     inkscape:window-y="115"
     inkscape:window-maximized="0"
     inkscape:current-layer="svg3105" />
  <g
     style="font-size:16px;font-weight:bold;fill:#dcd8d0;font-family:DFNewChuan-B5"
     id="text3107">
    <path
       d="m 4.703125,4.125 0,0 C 4.5156205,3.7083426 4.2291624,3.3281347 3.84375,2.984375 3.5624964,2.9114684 3.4218716,2.7916769 3.421875,2.625 3.4427049,2.4895938 3.5520798,2.380219 3.75,2.296875 4.3541623,2.3385523 4.8385368,2.7395936 5.203125,3.5 5.4218696,3.1562598 5.5520778,2.8177185 5.59375,2.484375 5.5937444,2.3593856 5.5833277,2.2760524 5.5625,2.234375 5.5416611,2.2031358 5.5312445,2.1458442 5.53125,2.0625 5.5937444,1.8854278 5.7083276,1.7968862 5.875,1.796875 c 0.2916605,1.12e-5 0.4374937,0.187511 0.4375,0.5625 -6.3e-6,0.6770933 -0.2708394,1.3437593 -0.8125,2 C 5.8333275,5.5781324 5.999994,7.2916724 6,9.5 c -6e-6,3.000001 -0.3385473,4.729165 -1.015625,5.1875 -0.052088,0.08333 -0.1510465,0.124998 -0.296875,0.125 -0.2187545,-2e-6 -0.3281294,-0.109377 -0.328125,-0.328125 -4.4e-6,-0.08333 0.052079,-0.22396 0.15625,-0.421875 0.2499952,-0.333334 0.4166617,-0.729167 0.5,-1.1875 0.1666615,-0.541666 0.2499947,-1.666665 0.25,-3.375 C 5.2656197,8.4166713 5.2343698,7.4791722 5.171875,6.6875 4.9010368,7.1041726 4.6562453,7.7291719 4.4375,8.5625 4.1770792,9.7187533 4.015621,11.072919 3.953125,12.625 3.9218711,12.90625 3.8020795,13.046875 3.59375,13.046875 3.3958299,13.046875 3.286455,12.90625 3.265625,12.625 3.2656217,11.250002 3.4739549,9.7291699 3.890625,8.0625 4.1718708,7.0625059 4.5729121,6.33334 5.09375,5.875 5.0520783,5.5416741 4.9947867,5.2447994 4.921875,4.984375 4.5156205,5.3281327 4.1302042,5.5000075 3.765625,5.5 3.5572881,5.5000075 3.4322882,5.3906326 3.390625,5.171875 3.3906216,4.9739664 3.4687465,4.8541748 3.625,4.8125 4.031246,4.6875083 4.3906206,4.4583419 4.703125,4.125 m 3.34375,1.1875 0,0 c -8e-6,3.9583371 0.031242,6.916667 0.09375,8.875 -8.1e-6,0.333332 -0.140633,0.499998 -0.421875,0.5 -0.2291742,-2e-6 -0.354174,-0.270835 -0.375,-0.8125 -7.3e-6,-2.385415 -7.3e-6,-4.7604128 0,-7.125 C 7.2083261,6.9895893 7.0833262,7.1979225 6.96875,7.375 6.7604099,7.7500052 6.6093684,7.9375051 6.515625,7.9375 6.3072854,7.8958384 6.1927021,7.7708386 6.171875,7.5625 6.1718688,7.4375056 6.2395771,7.2656307 6.375,7.046875 6.5416601,6.8072979 6.713535,6.5000065 6.890625,6.125 7.3385343,5.2083411 7.5624924,4.5989667 7.5625,4.296875 7.5624924,3.9218841 7.364576,3.4635512 6.96875,2.921875 6.7812432,2.7239686 6.6874933,2.4948022 6.6875,2.234375 6.7604099,2.0364693 6.8854098,1.9375111 7.0625,1.9375 7.2291594,1.9791777 7.4739509,2.2291774 7.796875,2.6875 8.1614502,3.2604264 8.3437417,3.7968842 8.34375,4.296875 8.3437417,4.5156335 8.2447834,4.8541748 8.046875,5.3125 m 2.640625,0.0625 0,0 c 0.218739,7.6e-6 0.359364,0.078132 0.421875,0.234375 l 0,0.578125 c -1.1e-5,0.2916732 0.135405,0.5000063 0.40625,0.625 0.427071,0.156256 0.776029,0.2760476 1.046875,0.359375 0.156237,0.052089 0.234362,0.1822973 0.234375,0.390625 -0.04168,0.2500052 -0.145846,0.3750051 -0.3125,0.375 -0.156262,5.1e-6 -0.453137,-0.1249948 -0.890625,-0.375 C 11.166655,7.2187558 10.895822,7.046881 10.78125,7.046875 10.656239,7.0885476 10.364573,7.2395891 9.90625,7.5 9.4479072,7.7916719 9.1718658,7.9375051 9.078125,7.9375 8.7968662,7.9375051 8.6458247,7.7708386 8.625,7.4375 8.6458247,7.3541723 8.7031163,7.2916724 8.796875,7.25 9.1614492,7.0729226 9.5416571,6.9062561 9.9375,6.75 10.18749,6.666673 10.31249,6.4947982 10.3125,6.234375 l 0,-0.5625 C 10.385406,5.5156325 10.510406,5.4166742 10.6875,5.375 m -0.375,3.609375 0,0 C 10.333323,8.651046 10.34374,8.302088 10.34375,7.9375 10.385406,7.6458387 10.505198,7.5000055 10.703125,7.5 c 0.260406,5.5e-6 0.390614,0.1458387 0.390625,0.4375 -1.1e-5,0.3229214 0.0052,0.6718794 0.01563,1.046875 0.385405,4e-6 0.822905,4e-6 1.3125,0 0.260404,0.041671 0.390612,0.1927122 0.390625,0.453125 -1.3e-5,0.19792 -0.130221,0.2968783 -0.390625,0.296875 -0.458345,3.3e-6 -0.895845,3.3e-6 -1.3125,0 0.01041,0.093753 0.01561,0.1822948 0.01563,0.265625 0.06249,0.697919 0.208322,1.385418 0.4375,2.0625 0.208322,0.541667 0.479155,1.078125 0.8125,1.609375 0.208321,0.343749 0.312487,0.593749 0.3125,0.75 -1.3e-5,0.260415 -0.125013,0.390623 -0.375,0.390625 -0.218762,-2e-6 -0.50522,-0.416668 -0.859375,-1.25 -0.291678,-0.583333 -0.541678,-1.312499 -0.75,-2.1875 -0.145844,0.791667 -0.458344,1.645833 -0.9375,2.5625 -0.2916761,0.583332 -0.5260509,0.895832 -0.703125,0.9375 -0.2187588,-2e-6 -0.3281337,-0.13021 -0.328125,-0.390625 -8.7e-6,-0.114585 0.1145745,-0.364584 0.34375,-0.75 0.2604073,-0.416667 0.4843654,-0.875 0.671875,-1.375 0.291657,-0.739582 0.473948,-1.526039 0.546875,-2.359375 -10e-6,-0.041664 -10e-6,-0.1093719 0,-0.203125 C 9.8385318,9.7968782 9.4114489,9.8229198 9.015625,9.875 8.8176995,9.8750031 8.7083246,9.7291699 8.6875,9.4375 8.6874913,9.2604204 8.8697828,9.1510455 9.234375,9.109375 9.4739489,9.0677123 9.8333235,9.0260456 10.3125,8.984375 m 0.578125,-4.5625 0,0 c 0.02082,-0.083325 0.06249,-0.1614496 0.125,-0.234375 0.187489,-0.4270741 0.281239,-0.7656154 0.28125,-1.015625 C 11.296864,2.9739684 11.187489,2.8750101 10.96875,2.875 10.28124,2.8750101 9.7239486,2.9114684 9.296875,2.984375 9.0676993,2.984385 8.953116,2.8645935 8.953125,2.625 8.9739494,2.4479272 9.0676993,2.3385523 9.234375,2.296875 9.6093654,2.2239691 10.260406,2.1875108 11.1875,2.1875 c 0.614572,1.08e-5 0.921863,0.2291773 0.921875,0.6875 -1.2e-5,0.489593 -0.07814,0.9062592 -0.234375,1.25 -0.06251,0.1145921 -0.119803,0.2135503 -0.171875,0.296875 0.208321,0.041675 0.43228,0.062508 0.671875,0.0625 0.270821,0.052092 0.406237,0.1614667 0.40625,0.328125 -1.3e-5,0.2395913 -0.135429,0.3593828 -0.40625,0.359375 -0.510429,7.8e-6 -1.09897,7.8e-6 -1.765625,0 -0.46876,7.8e-6 -1.0156346,0.02605 -1.640625,0.078125 -0.2604254,7.7e-6 -0.4010502,-0.1249921 -0.421875,-0.375 -8.5e-6,-0.1666584 0.1145747,-0.2968666 0.34375,-0.390625 0.3541574,8.5e-6 0.9166569,-0.020825 1.6875,-0.0625 0.104156,8.6e-6 0.208323,8.6e-6 0.3125,0"
       style="font-size:16px;font-weight:bold;fill:#dcd8d0;font-family:DFNewChuan-B5"
       id="path3116" />
  </g>
</svg>
