<?xml version="1.0" encoding="UTF-8" standalone="no"?>
<svg
   xmlns:dc="http://purl.org/dc/elements/1.1/"
   xmlns:cc="http://creativecommons.org/ns#"
   xmlns:rdf="http://www.w3.org/1999/02/22-rdf-syntax-ns#"
   xmlns:svg="http://www.w3.org/2000/svg"
   xmlns="http://www.w3.org/2000/svg"
   xmlns:sodipodi="http://sodipodi.sourceforge.net/DTD/sodipodi-0.dtd"
   xmlns:inkscape="http://www.inkscape.org/namespaces/inkscape"
   width="16px"
   height="16px"
   version="1.1"
   id="svg3076"
   inkscape:version="0.48.4 r9939"
   sodipodi:docname="羊.svg">
  <metadata
     id="metadata3084">
    <rdf:RDF>
      <cc:Work
         rdf:about="">
        <dc:format>image/svg+xml</dc:format>
        <dc:type
           rdf:resource="http://purl.org/dc/dcmitype/StillImage" />
      </cc:Work>
    </rdf:RDF>
  </metadata>
  <defs
     id="defs3082" />
  <sodipodi:namedview
     pagecolor="#ffffff"
     bordercolor="#666666"
     borderopacity="1"
     objecttolerance="10"
     gridtolerance="10"
     guidetolerance="10"
     inkscape:pageopacity="0"
     inkscape:pageshadow="2"
     inkscape:window-width="640"
     inkscape:window-height="480"
     id="namedview3080"
     showgrid="false"
     inkscape:zoom="14.75"
     inkscape:cx="8"
     inkscape:cy="8"
     inkscape:window-x="65"
     inkscape:window-y="24"
     inkscape:window-maximized="0"
     inkscape:current-layer="svg3076" />
  <g
     style="font-size:16px;font-weight:bold;fill:#dcd8d0;font-family:DFNewChuan-B5"
     id="text3078">
    <path
       d="m 7.59375,5.734375 0,0 c -7.6e-6,-0.1562426 -7.6e-6,-0.2968674 0,-0.421875 C 7.5729091,5.1770912 7.5624924,5.0677163 7.5625,4.984375 7.1354095,4.4531335 6.7708266,3.9739674 6.46875,3.546875 6.2187438,3.713551 5.7239526,3.9635507 4.984375,4.296875 4.5156205,4.5573001 4.1979125,4.6875083 4.03125,4.6875 c -0.2187538,8.3e-6 -0.3437537,-0.1301999 -0.375,-0.390625 -3.7e-6,-0.1145745 0.359371,-0.3645743 1.078125,-0.75 0.6354113,-0.3333235 1.0729109,-0.5416567 1.3125,-0.625 C 5.9114524,2.682302 5.7968692,2.4531355 5.703125,2.234375 5.6302027,2.0364693 5.5937444,1.8281362 5.59375,1.609375 5.666661,1.5677198 5.7656192,1.5312615 5.890625,1.5 6.2552021,1.5312615 6.6562433,2.0052193 7.09375,2.921875 7.5416591,3.7968842 7.8281172,4.2760504 7.953125,4.359375 8.2760334,4.1198005 8.635408,3.6406344 9.03125,2.921875 9.3437407,2.348969 9.6458237,1.9114694 9.9375,1.609375 c 0.052073,-0.041655 0.12499,-0.062488 0.21875,-0.0625 0.15624,0.083345 0.234365,0.2135529 0.234375,0.390625 -0.03126,0.2812608 -0.171885,0.6093855 -0.421875,0.984375 0.270823,0.083343 0.671864,0.2916765 1.203125,0.625 0.739571,0.3854257 1.109363,0.6354255 1.109375,0.75 C 12.281238,4.5573001 12.171863,4.6875083 11.953125,4.6875 11.71353,4.6875083 11.458322,4.5781334 11.1875,4.359375 10.46874,4.0781339 9.8958234,3.8281342 9.46875,3.609375 9.1874908,3.9948007 8.8489495,4.3958419 8.453125,4.8125 c -0.062508,0.1145914 -0.093758,0.234383 -0.09375,0.359375 -8.4e-6,0.177091 -8.4e-6,0.3437575 0,0.5 1.3020737,0.041674 2.374989,0.083341 3.21875,0.125 0.291655,7.2e-6 0.437488,0.1302154 0.4375,0.390625 -1.2e-5,0.2500066 -0.135429,0.3750064 -0.40625,0.375 -0.177095,6.4e-6 -0.619803,-0.046869 -1.328125,-0.140625 -0.645843,6.6e-6 -1.2864673,6.6e-6 -1.921875,0 -8.4e-6,0.4583395 -8.4e-6,0.895839 0,1.3125 1.4479069,5.3e-6 2.640614,0.020839 3.578125,0.0625 0.270821,0.052088 0.406238,0.1822967 0.40625,0.390625 -1.2e-5,0.2500046 -0.125012,0.3750044 -0.375,0.375 -0.218762,4.4e-6 -0.708345,-0.026037 -1.46875,-0.078125 -0.7187598,4.5e-6 -1.4323007,4.5e-6 -2.140625,0 -8.4e-6,2.125002 -8.4e-6,4.276042 0,6.453125 -0.031258,0.249998 -0.1354249,0.374998 -0.3125,0.375 C 7.7656172,15.312498 7.6249924,15.187498 7.625,14.9375 7.6145757,12.760417 7.6041591,10.609377 7.59375,8.484375 6.9479097,8.4843795 6.2760354,8.5104212 5.578125,8.5625 4.682287,8.5625044 4.1249959,8.5833378 3.90625,8.625 3.6874963,8.6250044 3.5677048,8.4791712 3.546875,8.1875 c -3.5e-6,-0.2083283 0.166663,-0.3124949 0.5,-0.3125 1.0624949,-0.052078 2.2447854,-0.098953 3.546875,-0.140625 -7.6e-6,-0.416661 -7.6e-6,-0.8333272 0,-1.25 -0.562507,6.5e-6 -1.1458398,6.5e-6 -1.75,0 C 5.0416616,6.5364648 4.5312455,6.5833398 4.3125,6.625 4.1041626,6.6250064 3.9895793,6.4791732 3.96875,6.1875 3.968746,5.9791737 4.1406209,5.8489655 4.484375,5.796875 5.4114529,5.7552156 6.4479102,5.7343823 7.59375,5.734375"
       style="font-size:16px;font-weight:bold;fill:#dcd8d0;font-family:DFNewChuan-B5"
       id="path3087" />
  </g>
</svg>
