<?xml version="1.0" encoding="UTF-8" standalone="no"?>
<svg
   xmlns:dc="http://purl.org/dc/elements/1.1/"
   xmlns:cc="http://creativecommons.org/ns#"
   xmlns:rdf="http://www.w3.org/1999/02/22-rdf-syntax-ns#"
   xmlns:svg="http://www.w3.org/2000/svg"
   xmlns="http://www.w3.org/2000/svg"
   xmlns:sodipodi="http://sodipodi.sourceforge.net/DTD/sodipodi-0.dtd"
   xmlns:inkscape="http://www.inkscape.org/namespaces/inkscape"
   width="16px"
   height="16px"
   version="1.1"
   id="svg3284"
   inkscape:version="0.48.4 r9939"
   sodipodi:docname="雞.svg">
  <metadata
     id="metadata3292">
    <rdf:RDF>
      <cc:Work
         rdf:about="">
        <dc:format>image/svg+xml</dc:format>
        <dc:type
           rdf:resource="http://purl.org/dc/dcmitype/StillImage" />
      </cc:Work>
    </rdf:RDF>
  </metadata>
  <defs
     id="defs3290" />
  <sodipodi:namedview
     pagecolor="#ffffff"
     bordercolor="#666666"
     borderopacity="1"
     objecttolerance="10"
     gridtolerance="10"
     guidetolerance="10"
     inkscape:pageopacity="0"
     inkscape:pageshadow="2"
     inkscape:window-width="640"
     inkscape:window-height="480"
     id="namedview3288"
     showgrid="false"
     inkscape:zoom="14.75"
     inkscape:cx="8"
     inkscape:cy="8"
     inkscape:window-x="65"
     inkscape:window-y="24"
     inkscape:window-maximized="0"
     inkscape:current-layer="svg3284" />
  <g
     style="font-size:16px;font-weight:bold;fill:#dcd8d0;font-family:DFNewChuan-B5"
     id="text3286">
    <path
       d="m 9.109375,4.75 0,0 c 0.2499906,0.1979247 0.5208237,0.3645912 0.8125,0.5 0.135407,-0.1770754 0.286448,-0.3645752 0.453125,-0.5625 0.479156,-0.3749913 0.718739,-0.734366 0.71875,-1.078125 -1.1e-5,-0.291657 -0.223969,-0.5208234 -0.671875,-0.6875 -0.02084,1.01e-5 -0.04168,1.01e-5 -0.0625,0 C 10.244781,3.1406349 10.104157,3.3698013 9.9375,3.609375 9.6041571,4.0260506 9.3281157,4.4062586 9.109375,4.75 m 1.5,-2.5625 0,0 c 0.812489,0.2916772 1.218738,0.7291768 1.21875,1.3125 -1.2e-5,0.6145922 -0.19272,1.0729251 -0.578125,1.375 -0.250011,0.1979246 -0.473969,0.427091 -0.671875,0.6875 0.635405,0.2083406 1.33853,0.3125071 2.109375,0.3125 0.218737,0.08334 0.328112,0.2031319 0.328125,0.359375 -1.3e-5,0.3020898 -0.151055,0.4531313 -0.453125,0.453125 -0.437512,-0.04166 -0.84897,-0.1093686 -1.234375,-0.203125 -1.1e-5,0.4166728 -1.1e-5,0.8125057 0,1.1875 L 12.375,7.875 c 0.270821,0.083338 0.406237,0.2239632 0.40625,0.421875 -1.3e-5,0.2187545 -0.145846,0.3281294 -0.4375,0.328125 L 11.328125,8.421875 c -1.1e-5,0.1770877 -1.1e-5,0.3645875 0,0.5625 -1.1e-5,0.2187538 -1.1e-5,0.4270869 0,0.625 L 12.375,9.875 c 0.270821,0.04167 0.406237,0.16667 0.40625,0.375 -1.3e-5,0.208336 -0.145846,0.312502 -0.4375,0.3125 l -1,-0.203125 c -1.1e-5,0.416669 0.0052,0.875002 0.01563,1.375 L 12.625,11.9375 c 0.281237,0.04167 0.421862,0.161459 0.421875,0.359375 -1.3e-5,0.21875 -0.151055,0.328125 -0.453125,0.328125 l -3.703125,-0.5 c -0.041676,0.697917 -0.062509,1.463541 -0.0625,2.296875 C 8.8072829,14.68229 8.6874913,14.812498 8.46875,14.8125 8.2916584,14.812498 8.1822835,14.68229 8.140625,14.421875 8.1718668,11.09896 8.4322832,8.619796 8.921875,6.984375 9.0885326,6.6093814 9.286449,6.2395901 9.515625,5.875 9.2447824,5.697924 8.999991,5.5104242 8.78125,5.3125 8.6562413,5.5520908 8.5572831,5.7604239 8.484375,5.9375 8.4322832,6.1354235 8.3072834,6.2343818 8.109375,6.234375 7.9218671,6.2343818 7.8281172,6.1562568 7.828125,6 c -7.8e-6,-0.4999925 0.3333252,-1.2343668 1,-2.203125 0.6562405,-0.7395734 1.0208235,-1.4270727 1.09375,-2.0625 0.020823,-0.1562386 0.135407,-0.2551968 0.34375,-0.296875 0.249989,1.16e-5 0.374989,0.1458448 0.375,0.4375 -1.1e-5,0.083344 -0.01043,0.1875109 -0.03125,0.3125 M 8.9375,11.375 l 0,0 1.65625,0.25 c 0.02082,-0.458331 0.03124,-0.937498 0.03125,-1.4375 L 9.09375,9.875 c -0.052092,0.458336 -0.1041757,0.958336 -0.15625,1.5 m 0.25,-2.203125 0,0 L 10.640625,9.5 c -1.1e-5,-0.166663 -1.1e-5,-0.3385378 0,-0.515625 C 10.640614,8.7447959 10.635406,8.5000045 10.625,8.25 L 9.421875,8 C 9.3281157,8.3750046 9.2499908,8.7656292 9.1875,9.171875 M 9.578125,7.3125 l 0,0 L 10.625,7.5 C 10.614573,7.1145892 10.598948,6.713548 10.578125,6.296875 10.421865,6.2552151 10.270823,6.2187568 10.125,6.1875 9.9062401,6.5208398 9.7291569,6.8958394 9.59375,7.3125 c -0.010426,5.7e-6 -0.015635,5.7e-6 -0.015625,0 m -4,-3.125 0,0 c 0.2083275,8.8e-6 0.3229108,0.0573 0.34375,0.171875 C 5.9635357,4.5364668 5.984369,4.7083416 5.984375,4.875 6.8697848,4.9062581 7.3437427,5.1927161 7.40625,5.734375 7.4062426,6.3281317 6.9270764,6.666673 5.96875,6.75 5.9895773,6.8645895 5.999994,6.984381 6,7.109375 6.968743,7.1510475 7.4843675,7.4895888 7.546875,8.125 7.5468675,8.697921 6.999993,9.0260456 5.90625,9.109375 5.9374941,9.1510455 5.953119,9.2187538 5.953125,9.3125 l 0,0.359375 c 0.395827,0.083337 0.76041,0.2760447 1.09375,0.578125 0.2291594,0.208336 0.4531175,0.437502 0.671875,0.6875 0.1458255,0.208335 0.2187421,0.375002 0.21875,0.5 -7.9e-6,0.197918 -0.1250078,0.31771 -0.375,0.359375 C 7.4583259,11.796876 7.348951,11.697918 7.234375,11.5 7.1093679,11.281252 6.9010348,11.031252 6.609375,10.75 6.4322852,10.572919 6.2135355,10.463544 5.953125,10.421875 l 0,0 c 0.010411,0.416669 0.1614522,0.921877 0.453125,1.515625 0.29166,0.625 0.6354096,1.166667 1.03125,1.625 0.229159,0.208333 0.3437422,0.395832 0.34375,0.5625 -7.8e-6,0.239582 -0.1197993,0.359374 -0.359375,0.359375 C 7.2552011,14.484374 6.9270764,14.156249 6.4375,13.5 6.0624939,12.875 5.7708276,12.333334 5.5625,11.875 5.4062446,12.500001 5.1614532,13.083333 4.828125,13.625 4.6718703,13.916666 4.5104122,14.161457 4.34375,14.359375 4.2083291,14.536457 4.1093709,14.624998 4.046875,14.625 3.8177045,14.583332 3.7031213,14.437499 3.703125,14.1875 c -3.7e-6,-0.08333 0.031246,-0.166668 0.09375,-0.25 0.062496,-0.09375 0.1354127,-0.197917 0.21875,-0.3125 0.2916624,-0.385417 0.5677037,-0.90625 0.828125,-1.5625 0.2499949,-0.677082 0.3749948,-1.177081 0.375,-1.5 l 0,-0.140625 C 4.8749951,10.557294 4.5312455,10.833336 4.1875,11.25 c -0.1145874,0.166668 -0.203129,0.307293 -0.265625,0.421875 -0.031254,0.08333 -0.1041705,0.125001 -0.21875,0.125 -0.2291701,10e-7 -0.3645867,-0.11979 -0.40625,-0.359375 -3.3e-6,-0.177082 0.2604131,-0.536456 0.78125,-1.078125 0.4062455,-0.322914 0.7812451,-0.5312468 1.125,-0.625 L 5.1875,9.25 C 5.2083281,9.1979205 5.2291614,9.1510455 5.25,9.109375 4.1354125,9.0677123 3.5781214,8.7604209 3.578125,8.1875 3.5781214,7.5625054 4.1197875,7.2031308 5.203125,7.109375 5.2031198,6.953131 5.2083281,6.8333395 5.21875,6.75 4.1666625,6.7083396 3.6406214,6.4166733 3.640625,5.875 3.6406214,5.2812577 4.1666625,4.9479247 5.21875,4.875 5.2187448,4.666675 5.2291614,4.4948002 5.25,4.359375 5.3124947,4.2448004 5.4218696,4.1875088 5.578125,4.1875 M 5.53125,6.125 l 0,0 C 6.3124937,6.1250069 6.7031183,6.015632 6.703125,5.796875 6.7031183,5.5572991 6.3385353,5.4375076 5.609375,5.4375 4.8385368,5.4375076 4.4374956,5.5833408 4.40625,5.875 c -4.4e-6,0.1666736 0.3749952,0.2500069 1.125,0.25 m 0,2.359375 0,0 C 6.3229103,8.4843795 6.7187433,8.3854213 6.71875,8.1875 6.7187433,7.8437552 6.348952,7.6718803 5.609375,7.671875 4.8697868,7.6718803 4.4895788,7.8437552 4.46875,8.1875 c -4.5e-6,0.1979213 0.3541618,0.2968795 1.0625,0.296875 m -0.65625,-6.0625 0,0 C 4.3437457,2.5156355 4.0729126,2.6458437 4.0625,2.8125 c -4.1e-6,0.072927 0.078121,0.1927183 0.234375,0.359375 0.1874955,0.2187596 0.2812454,0.4062594 0.28125,0.5625 C 4.5781204,3.953134 4.4739539,4.0625089 4.265625,4.0625 4.0781209,4.0625089 3.8437462,3.8541758 3.5625,3.4375 3.4062466,3.2604264 3.3229133,3.0520933 3.3125,2.8125 3.3124967,2.0937609 4.0052043,1.7343863 5.390625,1.734375 c 1.0624935,1.13e-5 1.7916595,0.046886 2.1875,0.140625 0.2604088,1.11e-5 0.390617,0.1041777 0.390625,0.3125 -8e-6,0.1979273 -0.083341,0.2968855 -0.25,0.296875 -0.1875075,1.05e-5 -0.3750073,1.05e-5 -0.5625,0 0.083326,0.1770937 0.177076,0.3645935 0.28125,0.5625 0.1354091,0.302093 0.2031174,0.4895928 0.203125,0.5625 C 7.6406174,3.7864675 7.5416591,3.8958424 7.34375,3.9375 7.2083261,3.9375091 7.046868,3.7708426 6.859375,3.4375 6.7552016,3.2187598 6.6145767,2.8802185 6.4375,2.421875 c -0.2812562,1.06e-5 -0.5781309,1.06e-5 -0.890625,0 0.104161,0.1770937 0.2187442,0.4062602 0.34375,0.6875 0.1354106,0.2916763 0.2031189,0.4791761 0.203125,0.5625 C 6.0937439,3.8489675 5.999994,3.9583424 5.8125,4 5.666661,4.000009 5.5052028,3.8333425 5.328125,3.5 5.2239531,3.2812597 5.0729116,2.9218851 4.875,2.421875"
       style="font-size:16px;font-weight:bold;fill:#dcd8d0;font-family:DFNewChuan-B5"
       id="path3295" />
  </g>
</svg>
