<?xml version="1.0" encoding="UTF-8" standalone="no"?>
<svg
   xmlns:dc="http://purl.org/dc/elements/1.1/"
   xmlns:cc="http://creativecommons.org/ns#"
   xmlns:rdf="http://www.w3.org/1999/02/22-rdf-syntax-ns#"
   xmlns:svg="http://www.w3.org/2000/svg"
   xmlns="http://www.w3.org/2000/svg"
   xmlns:sodipodi="http://sodipodi.sourceforge.net/DTD/sodipodi-0.dtd"
   xmlns:inkscape="http://www.inkscape.org/namespaces/inkscape"
   width="16px"
   height="16px"
   version="1.1"
   id="svg3053"
   inkscape:version="0.48.4 r9939"
   sodipodi:docname="兔.svg">
  <metadata
     id="metadata3061">
    <rdf:RDF>
      <cc:Work
         rdf:about="">
        <dc:format>image/svg+xml</dc:format>
        <dc:type
           rdf:resource="http://purl.org/dc/dcmitype/StillImage" />
      </cc:Work>
    </rdf:RDF>
  </metadata>
  <defs
     id="defs3059" />
  <sodipodi:namedview
     pagecolor="#ffffff"
     bordercolor="#666666"
     borderopacity="1"
     objecttolerance="10"
     gridtolerance="10"
     guidetolerance="10"
     inkscape:pageopacity="0"
     inkscape:pageshadow="2"
     inkscape:window-width="1301"
     inkscape:window-height="744"
     id="namedview3057"
     showgrid="false"
     inkscape:zoom="36.125"
     inkscape:cx="8"
     inkscape:cy="8"
     inkscape:window-x="65"
     inkscape:window-y="24"
     inkscape:window-maximized="1"
     inkscape:current-layer="svg3053" />
  <g
     style="font-size:16px;font-weight:bold;fill:#dcd8d0;font-family:DFNewChuan-B5"
     id="text3055">
    <path
       d="m 7.78125,5.109375 0,0 C 7.031243,5.1510495 6.4010353,5.2187578 5.890625,5.3125 5.5156195,5.3125077 5.2916614,5.5833408 5.21875,6.125 5.2812447,6.36459 5.4010363,6.5104232 5.578125,6.5625 5.7552026,6.6875063 6.4895768,6.7500062 7.78125,6.75 l 0,-1.640625 M 7.703125,7.5 l 0,0 C 6.2552021,7.5000055 5.4322862,7.4375056 5.234375,7.3125 4.7447869,7.1354225 4.4739539,6.7395896 4.421875,6.125 4.4218706,5.2916744 4.7864535,4.7916749 5.515625,4.625 5.9947857,4.5312585 6.7499932,4.4635502 7.78125,4.421875 l 0,-0.1875 C 7.7812422,3.8593841 8.0833253,3.5937594 8.6875,3.4375 9.2187408,3.3125097 9.4843655,3.1406349 9.484375,2.921875 c -9.5e-6,-0.2916563 -0.4323007,-0.4583228 -1.296875,-0.5 -0.031258,1.06e-5 -0.0573,1.06e-5 -0.078125,0 C 7.8489505,2.8385518 7.3697843,3.1562598 6.671875,3.375 5.5989527,3.6562593 4.8020785,4.0937589 4.28125,4.6875 4.0208293,5.0625079 3.7656212,5.2500077 3.515625,5.25 3.3072884,5.2500077 3.1979135,5.1250079 3.1875,4.875 c -3.2e-6,-0.1666584 0.2499966,-0.4999914 0.75,-1 C 4.4270789,3.4583429 5.1302032,3.0833433 6.046875,2.75 6.9010348,2.5729271 7.4114509,2.1562608 7.578125,1.5 7.651034,1.333345 7.7656172,1.2500118 7.921875,1.25 8.2239501,1.2500118 8.3749916,1.3906366 8.375,1.671875 c -8.4e-6,1.13e-5 -8.4e-6,0.020845 0,0.0625 -8.4e-6,1.13e-5 -8.4e-6,1.13e-5 0,0 1.3124903,1.13e-5 1.96874,0.3958442 1.96875,1.1875 C 10.34374,3.4635512 9.9895733,3.8020925 9.28125,3.9375 8.8124912,4.0208423 8.5676998,4.1614672 8.546875,4.359375 l 0,0.0625 c 1.0833237,0.041675 1.770823,0.08855 2.0625,0.140625 0.874989,0.041675 1.312488,0.5416746 1.3125,1.5 C 11.921863,6.7604229 11.645822,7.1562558 11.09375,7.25 10.666656,7.4166723 9.8072819,7.5000055 8.515625,7.5 8.4843665,7.6145887 8.4479082,7.7395886 8.40625,7.875 9.666657,7.9583384 10.296865,8.3906296 10.296875,9.171875 10.296865,9.3906286 10.15624,9.6458367 9.875,9.9375 c -0.3125096,0.322919 -0.4687594,0.656252 -0.46875,1 0.1979071,1.125001 1.135406,2.25 2.8125,3.375 0.249988,0.114582 0.374987,0.260415 0.375,0.4375 -1.3e-5,0.239581 -0.145846,0.359373 -0.4375,0.359375 -0.354178,-2e-6 -0.812511,-0.229169 -1.375,-0.6875 C 10.21874,13.963541 9.666657,13.34375 9.125,12.5625 8.7916579,12.010418 8.6145747,11.468752 8.59375,10.9375 8.5937414,10.687502 8.6249914,10.473961 8.6875,10.296875 8.7395746,10.140628 8.8385328,9.953128 8.984375,9.734375 9.2447824,9.5364618 9.3749906,9.3281287 9.375,9.109375 9.3229073,8.8281292 9.0416576,8.666671 8.53125,8.625 L 7.9375,8.6875 c -0.020841,4.3e-6 -0.041675,4.3e-6 -0.0625,0 C 7.666659,8.8541708 7.4531175,8.9739624 7.234375,9.046875 6.9114514,9.1822955 6.6249934,9.4322952 6.375,9.796875 5.8020775,10.515627 5.5156195,12.078126 5.515625,14.484375 5.5156195,14.786457 5.364578,14.937498 5.0625,14.9375 4.8854118,14.937498 4.7604119,14.812498 4.6875,14.5625 4.6874953,12.104168 4.98437,10.416669 5.578125,9.5 5.8906191,9.0833373 6.3281187,8.7239626 6.890625,8.421875 7.1510345,8.3385463 7.3697843,8.1302132 7.546875,7.796875 7.5989507,7.713547 7.651034,7.6145887 7.703125,7.5 M 8.5625,6.75 l 0,0 c 1.0520737,6.2e-6 1.703115,-0.020827 1.953125,-0.0625 C 10.901031,6.6458397 11.093739,6.4583399 11.09375,6.125 11.093739,5.5416741 10.911447,5.2500077 10.546875,5.25 10.140615,5.1562578 9.4687405,5.1093829 8.53125,5.109375 L 8.5625,6.75 m 2.40625,3.3125 0,0 c 0.135406,3e-6 0.27603,0.09896 0.421875,0.296875 0.260405,0.343752 0.479155,0.640627 0.65625,0.890625 0.104155,0.166668 0.156238,0.307293 0.15625,0.421875 -1.2e-5,0.260418 -0.125012,0.390626 -0.375,0.390625 -0.114595,10e-7 -0.234387,-0.109374 -0.359375,-0.328125 -0.187511,-0.281248 -0.406261,-0.58854 -0.65625,-0.921875 -0.145844,-0.08333 -0.218761,-0.213539 -0.21875,-0.390625 -1.1e-5,-0.197914 0.124989,-0.317705 0.375,-0.359375"
       style="font-size:16px;font-weight:bold;fill:#dcd8d0;font-family:DFNewChuan-B5"
       id="path3064" />
  </g>
</svg>
