<?xml version="1.0" encoding="UTF-8" standalone="no"?>
<svg
   xmlns:dc="http://purl.org/dc/elements/1.1/"
   xmlns:cc="http://creativecommons.org/ns#"
   xmlns:rdf="http://www.w3.org/1999/02/22-rdf-syntax-ns#"
   xmlns:svg="http://www.w3.org/2000/svg"
   xmlns="http://www.w3.org/2000/svg"
   xmlns:sodipodi="http://sodipodi.sourceforge.net/DTD/sodipodi-0.dtd"
   xmlns:inkscape="http://www.inkscape.org/namespaces/inkscape"
   width="16px"
   height="16px"
   version="1.1"
   id="svg3157"
   inkscape:version="0.48.4 r9939"
   sodipodi:docname="牛.svg">
  <metadata
     id="metadata3165">
    <rdf:RDF>
      <cc:Work
         rdf:about="">
        <dc:format>image/svg+xml</dc:format>
        <dc:type
           rdf:resource="http://purl.org/dc/dcmitype/StillImage" />
      </cc:Work>
    </rdf:RDF>
  </metadata>
  <defs
     id="defs3163" />
  <sodipodi:namedview
     pagecolor="#ffffff"
     bordercolor="#666666"
     borderopacity="1"
     objecttolerance="10"
     gridtolerance="10"
     guidetolerance="10"
     inkscape:pageopacity="0"
     inkscape:pageshadow="2"
     inkscape:window-width="640"
     inkscape:window-height="480"
     id="namedview3161"
     showgrid="false"
     inkscape:zoom="14.75"
     inkscape:cx="8"
     inkscape:cy="8"
     inkscape:window-x="65"
     inkscape:window-y="24"
     inkscape:window-maximized="0"
     inkscape:current-layer="svg3157" />
  <g
     style="font-size:16px;font-weight:bold;fill:#dcd8d0;font-family:DFNewChuan-B5"
     id="text3159">
    <path
       d="m 7.65625,6.625 0,0 C 7.6562423,5.9895903 7.651034,5.4062576 7.640625,4.875 l -2.84375,0 C 4.4739539,4.8750081 4.302079,4.6250084 4.28125,4.125 4.2812457,3.5416761 4.4895788,2.8333435 4.90625,2 4.999995,1.9166777 5.1249949,1.8489695 5.28125,1.796875 5.5312445,1.7968862 5.6562443,1.9270944 5.65625,2.1875 5.4999945,2.7187603 5.317703,3.2812597 5.109375,3.875 c -5.1e-6,0.1666756 0.036453,0.2500089 0.109375,0.25 L 7.640625,4.0625 C 7.6302007,3.2291764 7.6145757,2.5000105 7.59375,1.875 7.5937424,1.5833448 7.7499922,1.3958449 8.0625,1.3125 c 0.2812417,0.041678 0.4218665,0.2291781 0.421875,0.5625 -8.5e-6,0.7395937 -8.5e-6,1.4687597 0,2.1875 l 3,-0.0625 c 0.156238,0.041676 0.255197,0.1614672 0.296875,0.359375 C 11.760405,4.6198 11.645822,4.7708416 11.4375,4.8125 l -2.96875,0 c -8.5e-6,0.6145909 -0.00522,1.218757 -0.015625,1.8125 1.5104067,6.4e-6 2.749989,0.02084 3.71875,0.0625 0.322904,0.041673 0.484362,0.1822978 0.484375,0.421875 -1.3e-5,0.2604223 -0.145846,0.3906305 -0.4375,0.390625 -0.218762,5.5e-6 -0.734386,-0.020828 -1.546875,-0.0625 -0.7500099,5.6e-6 -1.4895925,5.6e-6 -2.21875,0 -8.5e-6,0.041672 -8.5e-6,0.083339 0,0.125 -8.5e-6,2.3229198 0.010408,4.609376 0.03125,6.859375 -8.5e-6,0.343748 -0.1406333,0.515623 -0.421875,0.515625 -0.2395912,-2e-6 -0.3750077,-0.270835 -0.40625,-0.8125 -7.7e-6,-2.208332 -7.7e-6,-4.4374967 0,-6.6875 C 6.968743,7.4375056 6.2447854,7.4583389 5.484375,7.5 4.5468705,7.5416721 3.9583294,7.5781304 3.71875,7.609375 3.4791632,7.6093804 3.348955,7.4427139 3.328125,7.109375 3.3281217,6.8697978 3.5208298,6.7500062 3.90625,6.75 c 1.1041617,-0.04166 2.3541604,-0.083327 3.75,-0.125"
       style="font-size:16px;font-weight:bold;fill:#dcd8d0;font-family:DFNewChuan-B5"
       id="path3168" />
  </g>
</svg>
