<?xml version="1.0" encoding="UTF-8" standalone="no"?>
<svg
   xmlns:dc="http://purl.org/dc/elements/1.1/"
   xmlns:cc="http://creativecommons.org/ns#"
   xmlns:rdf="http://www.w3.org/1999/02/22-rdf-syntax-ns#"
   xmlns:svg="http://www.w3.org/2000/svg"
   xmlns="http://www.w3.org/2000/svg"
   xmlns:sodipodi="http://sodipodi.sourceforge.net/DTD/sodipodi-0.dtd"
   xmlns:inkscape="http://www.inkscape.org/namespaces/inkscape"
   width="16px"
   height="16px"
   version="1.1"
   id="svg3024"
   inkscape:version="0.48.4 r9939"
   sodipodi:docname="狗.svg">
  <metadata
     id="metadata3032">
    <rdf:RDF>
      <cc:Work
         rdf:about="">
        <dc:format>image/svg+xml</dc:format>
        <dc:type
           rdf:resource="http://purl.org/dc/dcmitype/StillImage" />
      </cc:Work>
    </rdf:RDF>
  </metadata>
  <defs
     id="defs3030" />
  <sodipodi:namedview
     pagecolor="#ffffff"
     bordercolor="#666666"
     borderopacity="1"
     objecttolerance="10"
     gridtolerance="10"
     guidetolerance="10"
     inkscape:pageopacity="0"
     inkscape:pageshadow="2"
     inkscape:window-width="1301"
     inkscape:window-height="744"
     id="namedview3028"
     showgrid="false"
     inkscape:zoom="36.125"
     inkscape:cx="8"
     inkscape:cy="8"
     inkscape:window-x="65"
     inkscape:window-y="24"
     inkscape:window-maximized="1"
     inkscape:current-layer="svg3024" />
  <g
     style="font-size:16px;font-weight:bold;fill:#dcd8d0;font-family:DFNewChuan-B5"
     id="text3026">
    <path
       d="m 9.9375,6.484375 0,0 0,-0.546875 c 0.052073,-0.1770761 0.161448,-0.286451 0.328125,-0.328125 0.260406,7.4e-6 0.390614,0.1093823 0.390625,0.328125 L 10.625,8.484375 c -1.1e-5,0.833337 -0.458343,1.2500033 -1.375,1.25 -0.8750084,3.3e-6 -1.3125079,-0.4374963 -1.3125,-1.3125 L 7.90625,6 C 7.9583254,5.7395906 8.0729086,5.6093824 8.25,5.609375 8.4583249,5.6093824 8.5729081,5.7187573 8.59375,5.9375 l 0,0.546875 1.34375,0 m -1.34375,0.625 0,0 0.015625,1.25 c 0.010408,0.4166709 0.2343662,0.625004 0.671875,0.625 0.4270736,4e-6 0.6406151,-0.1874958 0.640625,-0.5625 l 0.015625,-1.3125 -1.34375,0 M 9.5,3.046875 l 0,0 c 1.416656,0.083343 2.270822,0.3593846 2.5625,0.828125 0.395821,0.5416753 0.593737,1.6666741 0.59375,3.375 -1.3e-5,1.5000043 -0.437512,2.5781282 -1.3125,3.234375 C 10.833323,11.03646 10.578114,11.541668 10.578125,12 c 0.02082,0.375001 0.302072,0.8125 0.84375,1.3125 0.708321,0.541666 1.062488,0.890624 1.0625,1.046875 -1.2e-5,0.260415 -0.130221,0.390623 -0.390625,0.390625 -0.239595,-2e-6 -0.625011,-0.229168 -1.15625,-0.6875 C 10.15624,13.3125 9.7656152,12.666667 9.765625,12.125 9.8072819,11.364585 10.18749,10.546877 10.90625,9.671875 11.531238,9.2552121 11.843738,8.4687545 11.84375,7.3125 11.843738,5.8854238 11.770822,5.031258 11.625,4.75 11.427072,4.0729256 10.583323,3.7343843 9.09375,3.734375 c -0.010426,9.3e-6 -0.026051,9.3e-6 -0.046875,0 C 8.9218661,3.8281342 8.7864495,3.9166757 8.640625,4 8.0989502,4.4166753 7.7604089,5.1458412 7.625,6.1875 7.5833257,6.3437567 7.4531175,6.4218816 7.234375,6.421875 7.015618,6.4218816 6.8854098,6.30209 6.84375,6.0625 6.8437432,5.5625074 6.9739514,5.0625079 7.234375,4.5625 7.4843675,4.0104257 7.8854088,3.5468845 8.4375,3.171875 8.697908,3.0885516 8.8281162,2.6093854 8.828125,1.734375 8.8906161,1.6093864 9.0208243,1.5468865 9.21875,1.546875 9.4791572,1.5468865 9.6093654,1.6770947 9.609375,1.9375 9.6093654,2.4375106 9.5729071,2.8073019 9.5,3.046875 M 4.875,4.0625 l 0,0 C 4.6041621,3.5625094 4.1614542,3.1458432 3.546875,2.8125 3.286455,2.6875103 3.1562468,2.5364688 3.15625,2.359375 3.1770802,2.2448024 3.2812467,2.1666775 3.46875,2.125 4.3124957,2.1250109 4.9739534,2.5833438 5.453125,3.5 5.8177025,3.1145932 6.031244,2.7343853 6.09375,2.359375 6.0937439,2.2448024 6.0833272,2.1666775 6.0625,2.125 6.0416606,2.0416776 6.031244,1.9583444 6.03125,1.875 c 0.062494,-0.177072 0.1874938,-0.2656136 0.375,-0.265625 0.3333266,1.14e-5 0.4999931,0.2083445 0.5,0.625 -6.9e-6,0.6770934 -0.3697982,1.3645927 -1.109375,2.0625 0.3958271,1.2187575 0.5937436,2.9114641 0.59375,5.078125 -6.4e-6,3.125001 -0.2552145,4.916665 -0.765625,5.375 -0.062506,0.08333 -0.1666721,0.124998 -0.3125,0.125 -0.2291718,-2e-6 -0.343755,-0.104168 -0.34375,-0.3125 -5e-6,-0.09375 0.041662,-0.239585 0.125,-0.4375 0.1874947,-0.375001 0.3072863,-0.791667 0.359375,-1.25 0.1249944,-0.541666 0.1874944,-1.708331 0.1875,-3.5 -5.6e-6,-1.1354119 -0.041672,-2.0989526 -0.125,-2.890625 C 5.1822865,6.8593811 4.8802035,7.5052138 4.609375,8.421875 4.2968707,9.5989617 4.1041626,10.979169 4.03125,12.5625 3.9895793,12.885417 3.8489545,13.046875 3.609375,13.046875 3.3906216,13.046875 3.2708301,12.885417 3.25,12.5625 3.2499967,11.135419 3.4947882,9.5729201 3.984375,7.875 4.3281207,6.8645895 4.7968702,6.1302152 5.390625,5.671875 5.3281197,5.3385493 5.2552031,5.0520913 5.171875,4.8125 4.6406204,5.1458412 4.1249959,5.333341 3.625,5.375 3.4374966,5.3750076 3.3229133,5.2656327 3.28125,5.046875 3.2812467,4.8489665 3.3593716,4.7291749 3.515625,4.6875 4.0260376,4.5520918 4.4791622,4.3437587 4.875,4.0625"
       style="font-size:16px;font-weight:bold;fill:#dcd8d0;font-family:DFNewChuan-B5"
       id="path3035" />
  </g>
</svg>
