<?xml version="1.0" encoding="UTF-8" standalone="no"?>
<svg
   xmlns:dc="http://purl.org/dc/elements/1.1/"
   xmlns:cc="http://creativecommons.org/ns#"
   xmlns:rdf="http://www.w3.org/1999/02/22-rdf-syntax-ns#"
   xmlns:svg="http://www.w3.org/2000/svg"
   xmlns="http://www.w3.org/2000/svg"
   xmlns:sodipodi="http://sodipodi.sourceforge.net/DTD/sodipodi-0.dtd"
   xmlns:inkscape="http://www.inkscape.org/namespaces/inkscape"
   width="16px"
   height="16px"
   version="1.1"
   id="svg3128"
   inkscape:version="0.48.4 r9939"
   sodipodi:docname="虎.svg">
  <metadata
     id="metadata3136">
    <rdf:RDF>
      <cc:Work
         rdf:about="">
        <dc:format>image/svg+xml</dc:format>
        <dc:type
           rdf:resource="http://purl.org/dc/dcmitype/StillImage" />
      </cc:Work>
    </rdf:RDF>
  </metadata>
  <defs
     id="defs3134" />
  <sodipodi:namedview
     pagecolor="#ffffff"
     bordercolor="#666666"
     borderopacity="1"
     objecttolerance="10"
     gridtolerance="10"
     guidetolerance="10"
     inkscape:pageopacity="0"
     inkscape:pageshadow="2"
     inkscape:window-width="640"
     inkscape:window-height="480"
     id="namedview3132"
     showgrid="false"
     inkscape:zoom="14.75"
     inkscape:cx="8"
     inkscape:cy="8"
     inkscape:window-x="65"
     inkscape:window-y="24"
     inkscape:window-maximized="0"
     inkscape:current-layer="svg3128" />
  <g
     style="font-size:16px;font-weight:bold;fill:#dcd8d0;font-family:DFNewChuan-B5"
     id="text3130">
    <path
       d="m 6.890625,5.375 0,0 0,-0.75 -1.671875,0 C 4.8020785,4.6250084 4.5364538,4.3958419 4.421875,3.9375 l 0.03125,-2 C 4.5156205,1.7604279 4.635412,1.651053 4.8125,1.609375 5.1041616,1.6093864 5.2499947,1.7604279 5.25,2.0625 L 5.21875,3.671875 c -5.2e-6,0.1354259 0.088536,0.2031341 0.265625,0.203125 l 1.40625,0 L 6.875,1.609375 c 0.020826,-0.2395717 0.140618,-0.3854049 0.359375,-0.4375 0.2708258,1.18e-5 0.4062424,0.1250117 0.40625,0.375 l 0,0.8125 c 0.5208252,1.06e-5 0.9374914,1.06e-5 1.25,0 0.2916575,-0.041656 0.5312406,-0.062489 0.71875,-0.0625 0.2604068,-0.041656 0.43749,-0.098947 0.53125,-0.171875 0.15624,-0.083322 0.244781,-0.2343639 0.265625,-0.453125 0.04166,-0.1979051 0.161448,-0.2968634 0.359375,-0.296875 0.260406,0.041678 0.40103,0.1614698 0.421875,0.359375 -0.06251,0.6354273 -0.385427,1.0312602 -0.96875,1.1875 -0.4062598,0.083343 -1.250009,0.12501 -2.53125,0.125 -0.020841,1e-5 -0.031258,1e-5 -0.03125,0 L 7.6875,3.875 l 3.46875,0 c 0.635405,9.1e-6 0.953113,0.2291756 0.953125,0.6875 -1.2e-5,1.4583403 0.04686,2.7656307 0.140625,3.921875 C 12.249988,8.7447959 12.130196,8.8750041 11.890625,8.875 11.703113,8.8750041 11.562488,8.7447959 11.46875,8.484375 11.364572,7.7031303 11.296864,6.4791732 11.265625,4.8125 11.265614,4.6875083 11.093739,4.6250084 10.75,4.625 l -3.0625,0 0.015625,0.6875 c 0.8020748,7.7e-6 1.614574,0.020841 2.4375,0.0625 0.302073,0.041674 0.453114,0.1614658 0.453125,0.359375 -1.1e-5,0.218757 -0.109385,0.3281319 -0.328125,0.328125 -0.7916761,6.9e-6 -1.6093837,6.9e-6 -2.453125,0 -0.041674,6.9e-6 -0.078133,6.9e-6 -0.109375,0 l 0.015625,0.5 c -7.7e-6,0.2395895 0.4166585,0.3593811 1.25,0.359375 0.4791572,6.1e-6 0.8697818,-0.015619 1.171875,-0.046875 0.18749,6.1e-6 0.28124,0.098964 0.28125,0.296875 -10e-6,0.2187556 -0.09376,0.3489638 -0.28125,0.390625 -0.104177,0.031255 -0.5000096,0.04688 -1.1875,0.046875 C 8.1510335,7.6093804 7.6562423,7.5520888 7.46875,7.4375 7.1770762,7.3958389 6.9895763,7.1666725 6.90625,6.75 L 6.890625,6.0625 c -0.4375065,6.9e-6 -0.906256,6.9e-6 -1.40625,0 C 5.3072864,6.1041736 5.1874948,6.1822985 5.125,6.296875 c -0.031255,0.3437564 -0.052088,0.8437559 -0.0625,1.5 -5.1e-6,1.88542 -0.088547,3.328127 -0.265625,4.328125 C 4.7031203,12.697917 4.5937454,13.213541 4.46875,13.671875 4.333329,14.171874 4.2031208,14.531248 4.078125,14.75 3.984371,14.947915 3.8541628,15.046873 3.6875,15.046875 3.4479132,15.046873 3.317705,14.906248 3.296875,14.625 3.2968717,14.447915 3.4010383,14.093749 3.609375,13.5625 3.7760379,13.104167 3.9166628,12.541667 4.03125,11.875 4.0833292,11.406252 4.1302042,10.968752 4.171875,10.5625 4.286454,9.4375036 4.3437457,7.9947967 4.34375,6.234375 4.364579,5.7864655 4.6249954,5.5000075 5.125,5.375 c 0.5624943,7.6e-6 1.1510354,7.6e-6 1.765625,0 m 0.65625,2.921875 0,0 C 7.8072839,8.2968797 7.9583254,8.4270879 8,8.6875 l -0.0625,2.484375 c -7.9e-6,1.010417 -0.1822994,1.807292 -0.546875,2.390625 -0.2291738,0.374999 -0.4791736,0.68229 -0.75,0.921875 C 6.4114519,14.703123 6.2135355,14.812498 6.046875,14.8125 5.8177025,14.812498 5.6770777,14.68229 5.625,14.421875 5.6249944,14.348957 5.6614527,14.270832 5.734375,14.1875 5.8072859,14.145832 5.8854108,14.083332 5.96875,14 6.364577,13.666666 6.651035,13.291666 6.828125,12.875 7.0989512,12.416667 7.2343678,11.807293 7.234375,11.046875 L 7.203125,8.625 C 7.286451,8.4062546 7.4010343,8.2968797 7.546875,8.296875 m 2.140625,0 0,0 c 0.2499901,0.041671 0.37499,0.1927128 0.375,0.453125 0.04166,0.5416704 0.06249,1.1458364 0.0625,1.8125 0.02082,0.781252 0.182281,1.447918 0.484375,2 0.218739,0.40625 0.479156,0.760416 0.78125,1.0625 0.229155,0.249999 0.385405,0.416666 0.46875,0.5 0.104155,0.08333 0.156238,0.18229 0.15625,0.296875 -0.05209,0.260415 -0.19272,0.390623 -0.421875,0.390625 -0.114595,-2e-6 -0.218761,-0.04167 -0.3125,-0.125 -0.114595,-0.08333 -0.234386,-0.19271 -0.359375,-0.328125 -0.312511,-0.375001 -0.62501,-0.791667 -0.9375,-1.25 C 9.5676988,12.369792 9.3593656,11.520835 9.359375,10.5625 9.348949,9.8958364 9.3229073,9.333337 9.28125,8.875 9.3229073,8.4895878 9.4583239,8.2968797 9.6875,8.296875"
       style="font-size:16px;font-weight:bold;fill:#dcd8d0;font-family:DFNewChuan-B5"
       id="path3139" />
  </g>
</svg>
