<?xml version="1.0" encoding="UTF-8" standalone="no"?>
<svg
   xmlns:dc="http://purl.org/dc/elements/1.1/"
   xmlns:cc="http://creativecommons.org/ns#"
   xmlns:rdf="http://www.w3.org/1999/02/22-rdf-syntax-ns#"
   xmlns:svg="http://www.w3.org/2000/svg"
   xmlns="http://www.w3.org/2000/svg"
   xmlns:sodipodi="http://sodipodi.sourceforge.net/DTD/sodipodi-0.dtd"
   xmlns:inkscape="http://www.inkscape.org/namespaces/inkscape"
   width="16px"
   height="16px"
   version="1.1"
   id="svg3180"
   inkscape:version="0.48.4 r9939"
   sodipodi:docname="蛇.svg">
  <metadata
     id="metadata3188">
    <rdf:RDF>
      <cc:Work
         rdf:about="">
        <dc:format>image/svg+xml</dc:format>
        <dc:type
           rdf:resource="http://purl.org/dc/dcmitype/StillImage" />
      </cc:Work>
    </rdf:RDF>
  </metadata>
  <defs
     id="defs3186" />
  <sodipodi:namedview
     pagecolor="#ffffff"
     bordercolor="#666666"
     borderopacity="1"
     objecttolerance="10"
     gridtolerance="10"
     guidetolerance="10"
     inkscape:pageopacity="0"
     inkscape:pageshadow="2"
     inkscape:window-width="640"
     inkscape:window-height="480"
     id="namedview3184"
     showgrid="false"
     inkscape:zoom="14.75"
     inkscape:cx="8"
     inkscape:cy="8"
     inkscape:window-x="65"
     inkscape:window-y="24"
     inkscape:window-maximized="0"
     inkscape:current-layer="svg3180" />
  <g
     style="font-size:16px;font-weight:bold;fill:#dcd8d0;font-family:DFNewChuan-B5"
     id="text3182">
    <path
       d="m 9.734375,6.8125 0,0 c 0.614573,6.2e-6 0.942698,-0.1718686 0.984375,-0.515625 0.07291,-0.1562431 0.109364,-0.6927009 0.109375,-1.609375 -1.1e-5,-0.1770748 0.109364,-0.2864497 0.328125,-0.328125 0.239572,8.6e-6 0.36978,0.1093835 0.390625,0.328125 l -0.0625,1.375 c -1.1e-5,0.9166727 -0.588553,1.3750056 -1.765625,1.375 -0.010426,0.3750052 -0.020843,0.7500048 -0.03125,1.125 -9.7e-6,0.5000039 0.1458235,0.8489619 0.4375,1.046875 0.531239,0.2604198 0.942697,0.51042 1.234375,0.75 0.395822,0.343752 0.661446,0.781252 0.796875,1.3125 0.239571,0.635417 0.369779,1.598958 0.390625,2.890625 -1.3e-5,0.291665 -0.135429,0.437498 -0.40625,0.4375 -0.229179,-2e-6 -0.364595,-0.145835 -0.40625,-0.4375 -1.2e-5,-0.968751 -0.13022,-1.911458 -0.390625,-2.828125 C 11.124989,11.16146 10.755198,10.791669 10.234375,10.625 9.7447819,10.375003 9.4322822,10.125003 9.296875,9.875 9.0781159,9.5833368 8.968741,9.1458372 8.96875,8.5625 8.968741,7.2708391 9.015616,6.000007 9.109375,4.75 9.1406159,4.5312585 9.2551991,4.4218836 9.453125,4.421875 9.6926986,4.4218836 9.8229068,4.5312585 9.84375,4.75 9.8020735,5.4062576 9.7656152,6.0937569 9.734375,6.8125 M 4.6875,3.796875 l 0,0 C 4.6874953,3.713551 4.682287,3.6145927 4.671875,3.5 4.5572871,2.697927 4.4999955,2.1979275 4.5,2 4.5208288,1.7812612 4.6406204,1.651053 4.859375,1.609375 c 0.1770783,1.14e-5 0.3177032,0.041678 0.421875,0.125 0.072911,0.5000108 0.1302029,1.1875101 0.171875,2.0625 C 5.8072859,3.7968842 6.1249939,3.8645925 6.40625,4 6.9583264,4.1562588 7.2343678,4.6562583 7.234375,5.5 7.2135345,6.4479232 6.8072849,6.9218811 6.015625,6.921875 5.7760359,6.9218811 5.6093694,6.8854228 5.515625,6.8125 5.5052028,7.6875053 5.3072864,8.333338 4.921875,8.75 4.5156205,9.1666705 4.3124957,9.5416701 4.3125,9.875 4.333329,10.583336 4.6145787,10.937502 5.15625,10.9375 5.7499942,10.937502 6.0572856,10.625002 6.078125,10 6.0781189,9.5833368 5.9895773,9.2291704 5.8125,8.9375 5.6562443,8.8125042 5.5781194,8.6614627 5.578125,8.484375 5.651036,8.2447964 5.7968692,8.1250049 6.015625,8.125 c 0.1562438,4.9e-6 0.364577,0.208338 0.625,0.625 0.1562432,0.3750039 0.2343681,0.7708368 0.234375,1.1875 -6.9e-6,1.083335 -0.5625063,1.645835 -1.6875,1.6875 -1.0833374,10e-7 -1.6250036,-0.583331 -1.625,-1.75 C 3.5624964,9.364587 3.7239546,8.9270874 4.046875,8.5625 4.286454,8.3541713 4.4687455,8.0989632 4.59375,7.796875 4.7187453,7.5572971 4.7864535,7.2083391 4.796875,6.75 4.7239536,6.7916729 4.6145787,6.8125062 4.46875,6.8125 3.5624964,6.8125062 3.1041636,6.3750066 3.09375,5.5 3.1041636,4.8229248 3.3593716,4.3229253 3.859375,4 4.0572876,3.9166757 4.333329,3.8489675 4.6875,3.796875 m 0.109375,2.390625 0,0 C 4.7864535,5.6041741 4.7656202,5.015633 4.734375,4.421875 4.1302042,4.5573001 3.8229128,4.9166748 3.8125,5.5 c -3.8e-6,0.4583404 0.2968709,0.6875068 0.890625,0.6875 0.031245,6.8e-6 0.062495,6.8e-6 0.09375,0 m 0.6875,-1.765625 0,0 c 0.020828,0.593758 0.031244,1.2395907 0.03125,1.9375 0.072911,-0.04166 0.1874943,-0.062493 0.34375,-0.0625 0.4166604,6.7e-6 0.6249935,-0.265618 0.625,-0.796875 -6.5e-6,-0.6249919 -0.3333395,-0.9843665 -1,-1.078125 m 4.40625,-1.734375 0,0 C 9.8489485,2.3125107 9.7968652,1.953136 9.734375,1.609375 9.7551986,1.4114699 9.8593651,1.2916784 10.046875,1.25 c 0.15624,1.18e-5 0.291656,0.041678 0.40625,0.125 0.104156,0.1979281 0.182281,0.6354277 0.234375,1.3125 0.458322,1.03e-5 0.890613,0.020844 1.296875,0.0625 0.583321,0.041677 0.874987,0.2708433 0.875,0.6875 0.02082,1.6250079 0.08853,3.0364649 0.203125,4.234375 -1.3e-5,0.2187551 -0.114596,0.32813 -0.34375,0.328125 -0.250012,5e-6 -0.375012,-0.088537 -0.375,-0.265625 C 12.229154,7.2760474 12.15103,5.9218821 12.109375,3.671875 12.109363,3.4323012 11.489572,3.3125097 10.25,3.3125 9.0208243,3.3541763 8.3958249,3.5156345 8.375,3.796875 8.3749916,5.9218821 8.3281167,7.2343808 8.234375,7.734375 8.2135335,7.9114634 8.0729086,8.000005 7.8125,8 7.6145757,8.000005 7.5156175,7.8906301 7.515625,7.671875 7.5781174,6.8802145 7.6093674,5.4895908 7.609375,3.5 7.619784,3.0833433 7.9218671,2.8333435 8.515625,2.75 c 0.5104076,-0.041656 0.9687405,-0.06249 1.375,-0.0625"
       style="font-size:16px;font-weight:bold;fill:#dcd8d0;font-family:DFNewChuan-B5"
       id="path3191" />
  </g>
</svg>
