<?xml version="1.0" encoding="UTF-8" standalone="no"?>
<svg
   xmlns:dc="http://purl.org/dc/elements/1.1/"
   xmlns:cc="http://creativecommons.org/ns#"
   xmlns:rdf="http://www.w3.org/1999/02/22-rdf-syntax-ns#"
   xmlns:svg="http://www.w3.org/2000/svg"
   xmlns="http://www.w3.org/2000/svg"
   xmlns:sodipodi="http://sodipodi.sourceforge.net/DTD/sodipodi-0.dtd"
   xmlns:inkscape="http://www.inkscape.org/namespaces/inkscape"
   width="16px"
   height="16px"
   version="1.1"
   id="svg3232"
   inkscape:version="0.48.4 r9939"
   sodipodi:docname="豬.svg">
  <metadata
     id="metadata3240">
    <rdf:RDF>
      <cc:Work
         rdf:about="">
        <dc:format>image/svg+xml</dc:format>
        <dc:type
           rdf:resource="http://purl.org/dc/dcmitype/StillImage" />
      </cc:Work>
    </rdf:RDF>
  </metadata>
  <defs
     id="defs3238" />
  <sodipodi:namedview
     pagecolor="#ffffff"
     bordercolor="#666666"
     borderopacity="1"
     objecttolerance="10"
     gridtolerance="10"
     guidetolerance="10"
     inkscape:pageopacity="0"
     inkscape:pageshadow="2"
     inkscape:window-width="640"
     inkscape:window-height="480"
     id="namedview3236"
     showgrid="false"
     inkscape:zoom="14.75"
     inkscape:cx="8"
     inkscape:cy="8"
     inkscape:window-x="65"
     inkscape:window-y="24"
     inkscape:window-maximized="0"
     inkscape:current-layer="svg3232" />
  <g
     style="font-size:16px;font-weight:bold;fill:#dcd8d0;font-family:DFNewChuan-B5"
     id="text3234">
    <path
       d="m 5.53125,3.109375 0,0 C 5.3541613,3.7031343 5.1718698,4.1875088 4.984375,4.5625 5.3385363,5.302091 5.5624944,6.4270899 5.65625,7.9375 5.9791607,7.5625054 6.2083271,7.3750056 6.34375,7.375 c 0.3124933,5.6e-6 0.5364515,0.6458383 0.671875,1.9375 0.1562428,1.114586 0.2343677,1.901043 0.234375,2.359375 -7.3e-6,0.302084 -0.093757,0.473959 -0.28125,0.515625 -0.2604234,10e-7 -0.4062566,-0.104166 -0.4375,-0.3125 C 6.4999935,11.208335 6.4531185,10.515627 6.390625,9.796875 6.2968687,8.7968792 6.2187438,8.2968797 6.15625,8.296875 6.0833272,8.2968797 5.9374941,8.4479212 5.71875,8.75 c 0.010411,0.3750039 0.015619,0.7500035 0.015625,1.125 -5.7e-6,1.791668 -0.041672,3.270833 -0.125,4.4375 -0.083339,0.208332 -0.2187554,0.312498 -0.40625,0.3125 -0.1979217,-2e-6 -0.3072966,-0.104168 -0.328125,-0.3125 -4.9e-6,-0.250001 0.01562,-0.630209 0.046875,-1.140625 0.062495,-1.072916 0.093745,-2.15104 0.09375,-3.234375 -5e-6,-0.041664 -5e-6,-0.062497 0,-0.0625 -0.364588,0.625003 -0.697921,1.22396 -1,1.796875 -0.1770872,0.541667 -0.3125037,0.812501 -0.40625,0.8125 -0.26042,10e-7 -0.4114615,-0.09896 -0.453125,-0.296875 -3.2e-6,-0.260416 0.1354134,-0.640624 0.40625,-1.140625 0.3645794,-0.614581 0.7968706,-1.3020801 1.296875,-2.0625 0.041662,-0.031246 0.083328,-0.088538 0.125,-0.171875 C 4.9635367,8.2708381 4.9322867,7.7708386 4.890625,7.3125 4.5885371,7.7708386 4.2916624,8.1614632 4,8.484375 3.7187463,8.9010458 3.5260381,9.1093789 3.421875,9.109375 3.2552051,9.1093789 3.1510385,9.0104207 3.109375,8.8125 3.1093719,8.6458377 3.36458,8.2291714 3.875,7.5625 4.1666625,7.1354225 4.4687455,6.7552146 4.78125,6.421875 4.7291619,6.0572986 4.6562453,5.7291739 4.5625,5.4375 4.4479122,5.635424 4.3229123,5.8020905 4.1875,5.9375 3.968746,6.30209 3.7447879,6.4843815 3.515625,6.484375 3.348955,6.4843815 3.2447884,6.36459 3.203125,6.125 3.2031218,5.9583404 3.2916634,5.8072989 3.46875,5.671875 3.7187463,5.4739659 3.9583294,5.1458412 4.1875,4.6875 4.3854123,4.3854253 4.5885371,3.8593841 4.796875,3.109375 4.4635372,3.1093849 4.0989542,3.1302182 3.703125,3.171875 3.4218716,3.1718848 3.2708301,3.0520933 3.25,2.8125 3.2499967,2.6458437 3.36458,2.5156355 3.59375,2.421875 3.8958294,2.380219 4.380204,2.3593856 5.046875,2.359375 5.4531195,2.3593856 5.9583274,2.380219 6.5625,2.421875 6.8437432,2.4635522 6.984368,2.5729271 6.984375,2.75 6.984368,3.03126 6.8437432,3.1718848 6.5625,3.171875 6.2499937,3.1718848 5.9062441,3.1510515 5.53125,3.109375 M 9.6875,3.5 l 0,0 c -9.7e-6,-0.5833232 -9.7e-6,-1.151031 0,-1.703125 0.03124,-0.1666553 0.1354068,-0.2499885 0.3125,-0.25 0.24999,1.15e-5 0.37499,0.1093863 0.375,0.328125 -10e-6,0.5416773 -10e-6,1.0833434 0,1.625 0.187489,9.5e-6 0.390614,9.5e-6 0.609375,0 0.249989,0.031259 0.374989,0.1302177 0.375,0.296875 -1.1e-5,0.218759 -0.125011,0.3281339 -0.375,0.328125 -0.208344,8.9e-6 -0.411469,8.9e-6 -0.609375,0 -10e-6,0.6145916 -10e-6,1.239591 0,1.875 0.12499,7e-6 0.239573,0.02084 0.34375,0.0625 0.312489,-0.1770762 0.578114,-0.427076 0.796875,-0.75 0.208322,-0.2916587 0.312488,-0.6874916 0.3125,-1.1875 l 0,-1.5625 c 0.09374,-0.1354061 0.21353,-0.2031144 0.359375,-0.203125 0.177071,1.06e-5 0.281238,0.1093855 0.3125,0.328125 l 0.03125,1.375 c -1.3e-5,0.9583413 -0.276054,1.7031322 -0.828125,2.234375 -0.04168,6.7e-6 -0.07814,0.02084 -0.109375,0.0625 0.156238,0.08334 0.302071,0.1718815 0.4375,0.265625 0.312488,0.1979228 0.562487,0.4479226 0.75,0.75 C 12.968737,7.5312555 13.062487,7.7395886 13.0625,8 13.041654,8.2395881 12.916654,8.3593796 12.6875,8.359375 12.614571,8.3593796 12.510404,8.2812547 12.375,8.125 12.229154,7.8645885 12.031238,7.6145887 11.78125,7.375 11.499988,7.1145892 11.203114,6.9270894 10.890625,6.8125 10.796864,6.8541728 10.703114,6.8906311 10.609375,6.921875 10.140615,7.1406309 9.7187403,7.5000055 9.34375,8 8.5312415,8.9166708 8.1249919,10.979169 8.125,14.1875 c -8.1e-6,0.197915 -0.1197997,0.296874 -0.359375,0.296875 -0.1354243,-10e-7 -0.2395909,-0.09896 -0.3125,-0.296875 -7.5e-6,-3.249998 0.4270755,-5.4583291 1.28125,-6.625 0.2708243,-0.3854108 0.6041573,-0.7187438 1,-1 C 9.5572821,6.5625064 9.380199,6.5364648 9.203125,6.484375 8.6301997,6.4427149 8.2343668,6.2395901 8.015625,5.875 7.8072839,5.5416741 7.6770757,5.1041746 7.625,4.5625 7.6145757,4.3125087 7.5989507,3.9948007 7.578125,3.609375 7.5677008,3.4114679 7.5624924,3.1458432 7.5625,2.8125 7.6145757,2.5937604 7.7239506,2.4843855 7.890625,2.484375 8.1197835,2.4843855 8.2343668,2.5729271 8.234375,2.75 8.2343668,3.7083426 8.2604084,4.3541753 8.3125,4.6875 8.3541583,5.0104247 8.4635332,5.2812577 8.640625,5.5 8.8281162,5.697924 9.1458242,5.8229238 9.59375,5.875 c 0.020824,7.1e-6 0.052074,7.1e-6 0.09375,0 -9.7e-6,-0.5937423 -9.7e-6,-1.177075 0,-1.75 C 9.3958239,4.1666755 9.1301992,4.1875088 8.890625,4.1875 8.713533,4.1875088 8.619783,4.0573006 8.609375,3.796875 8.6093664,3.6302177 8.7708246,3.5312595 9.09375,3.5 c 0.1249908,9.5e-6 0.3229073,9.5e-6 0.59375,0 m 1.96875,6.5 0,0 -1.8125,0.0625 0,1.375 L 11.640625,11.375 11.65625,10 m -0.01563,2 0,0 -1.796875,0.0625 0.015625,0.625 c 0.020824,0.65625 0.296865,0.984374 0.828125,0.984375 0.624989,-10e-7 0.937488,-0.286459 0.9375,-0.859375 L 11.640625,12 M 9.84375,9.375 l 0,0 1.84375,0 0,-0.4375 c 0.05207,-0.1666624 0.166655,-0.270829 0.34375,-0.3125 0.260404,4.4e-6 0.390613,0.1041709 0.390625,0.3125 L 12.375,12.625 c -1.2e-5,1.197916 -0.572928,1.796874 -1.71875,1.796875 -0.989593,-10e-7 -1.4843842,-0.619792 -1.484375,-1.859375 l -0.03125,-3.625 c 0.052074,-0.2499957 0.1666574,-0.3749956 0.34375,-0.375 0.2187403,4.4e-6 0.3385318,0.1250043 0.359375,0.375 l 0,0.4375"
       style="font-size:16px;font-weight:bold;fill:#dcd8d0;font-family:DFNewChuan-B5"
       id="path3243" />
  </g>
</svg>
