<?xml version="1.0" encoding="UTF-8" standalone="no"?>
<svg
   xmlns:dc="http://purl.org/dc/elements/1.1/"
   xmlns:cc="http://creativecommons.org/ns#"
   xmlns:rdf="http://www.w3.org/1999/02/22-rdf-syntax-ns#"
   xmlns:svg="http://www.w3.org/2000/svg"
   xmlns="http://www.w3.org/2000/svg"
   xmlns:sodipodi="http://sodipodi.sourceforge.net/DTD/sodipodi-0.dtd"
   xmlns:inkscape="http://www.inkscape.org/namespaces/inkscape"
   width="16px"
   height="16px"
   version="1.1"
   id="svg3336"
   inkscape:version="0.48.4 r9939"
   sodipodi:docname="馬.svg">
  <metadata
     id="metadata3344">
    <rdf:RDF>
      <cc:Work
         rdf:about="">
        <dc:format>image/svg+xml</dc:format>
        <dc:type
           rdf:resource="http://purl.org/dc/dcmitype/StillImage" />
      </cc:Work>
    </rdf:RDF>
  </metadata>
  <defs
     id="defs3342" />
  <sodipodi:namedview
     pagecolor="#ffffff"
     bordercolor="#666666"
     borderopacity="1"
     objecttolerance="10"
     gridtolerance="10"
     guidetolerance="10"
     inkscape:pageopacity="0"
     inkscape:pageshadow="2"
     inkscape:window-width="640"
     inkscape:window-height="480"
     id="namedview3340"
     showgrid="false"
     inkscape:zoom="14.75"
     inkscape:cx="8"
     inkscape:cy="8"
     inkscape:window-x="65"
     inkscape:window-y="24"
     inkscape:window-maximized="0"
     inkscape:current-layer="svg3336" />
  <g
     style="font-size:16px;font-weight:bold;fill:#dcd8d0;font-family:DFNewChuan-B5"
     id="text3338">
    <path
       d="m 6.671875,8.484375 0,0 C 5.9322857,8.8593791 5.2760364,9.1354205 4.703125,9.3125 4.1406209,9.5104202 3.7395796,9.6093784 3.5,9.609375 3.2812467,9.6093784 3.1406219,9.5104202 3.078125,9.3125 3.0781219,9.1354205 3.1562468,9.0104207 3.3125,8.9375 3.635413,8.8958374 4.0260376,8.7708376 4.484375,8.5625 4.9947867,8.3854213 5.4947862,8.1770882 5.984375,7.9375 5.01562,7.1458392 4.5312455,6.33334 4.53125,5.5 L 4.5,2.75 c 0.020829,-0.6770724 0.9114529,-1.0156137 2.671875,-1.015625 2.1562407,1.13e-5 3.526031,0.020845 4.109375,0.0625 0.239572,1.12e-5 0.359363,0.1093861 0.359375,0.328125 -1.2e-5,0.239594 -0.119803,0.3593855 -0.359375,0.359375 -0.593761,1.05e-5 -1.5000098,-0.020823 -2.71875,-0.0625 l 0,1.125 c 0.8958239,9.5e-6 1.640615,0.020843 2.234375,0.0625 0.260406,9.4e-6 0.390614,0.1302176 0.390625,0.390625 -1.1e-5,0.1979255 -0.119803,0.2968837 -0.359375,0.296875 -0.145844,8.7e-6 -0.494802,-0.020825 -1.046875,-0.0625 -0.4062594,8.8e-6 -0.812509,8.8e-6 -1.21875,0 l 0,0.578125 c -8.6e-6,0.1145914 -0.00522,0.234383 -0.015625,0.359375 0.9374905,0.052091 1.713531,0.078133 2.328125,0.078125 0.260406,0.041674 0.390614,0.1614659 0.390625,0.359375 -1.1e-5,0.2187572 -0.119803,0.3281321 -0.359375,0.328125 -0.145844,7.1e-6 -0.494802,-0.020826 -1.046875,-0.0625 -0.4583427,7.1e-6 -0.9218839,7.1e-6 -1.390625,0 C 8.3124917,6.7916729 7.953117,7.5000055 7.390625,8 c 0.6041587,0.4583379 1.1041582,0.9166708 1.5,1.375 1.06249,-1.0937453 1.749989,-1.6406197 2.0625,-1.640625 0.656238,5.3e-6 1.124988,0.916671 1.40625,2.75 0.322904,1.552084 0.484362,2.682292 0.484375,3.390625 -1.3e-5,0.249999 -0.08335,0.395832 -0.25,0.4375 C 12.333321,14.312499 12.187488,14.208332 12.15625,14 12.041655,13.041667 11.864571,12.020834 11.625,10.9375 11.333322,9.4791702 11.046864,8.7500043 10.765625,8.75 10.578114,8.7500043 10.09374,9.1666705 9.3125,10 c 0.1666572,0.281253 0.307282,0.572919 0.421875,0.875 0.583323,1.375001 0.874989,2.536458 0.875,3.484375 -1.1e-5,0.343748 -0.130219,0.515623 -0.390625,0.515625 -0.21876,-2e-6 -0.3593849,-0.13021 -0.421875,-0.390625 C 9.5989487,12.953125 9.2395741,11.687501 8.71875,10.6875 7.8958254,11.687501 7.1718678,12.645834 6.546875,13.5625 6.1718688,14.354165 5.8958274,14.749998 5.71875,14.75 5.4583279,14.749998 5.302078,14.61979 5.25,14.359375 5.2499947,14.036457 5.4999945,13.541666 6,12.875 6.6458267,12.000001 7.4166592,11.041669 8.3125,10 8.1562418,9.7395866 7.9895753,9.5312535 7.8125,9.375 7.5520758,9.7083366 7.0208263,10.208336 6.21875,10.875 5.0833282,12.000001 4.4270789,12.5625 4.25,12.5625 c -0.218754,0 -0.3385456,-0.104166 -0.359375,-0.3125 -3.9e-6,-0.249999 0.3333291,-0.65104 1,-1.203125 C 6.0364523,9.9322947 6.8229098,9.2083371 7.25,8.875 7.0416596,8.7500043 6.8489515,8.619796 6.671875,8.484375 M 6.6875,7.5 l 0,0 C 7.1979095,7.1145892 7.5364508,6.5729231 7.703125,5.875 7.286451,5.9166737 6.8541598,5.9375071 6.40625,5.9375 5.9583274,5.9791737 5.6302027,6.000007 5.421875,6 5.5781194,6.5416731 5.999994,7.0416726 6.6875,7.5 m -1.359375,-2.1875 0,0 c 0.020828,7.7e-6 0.036453,7.7e-6 0.046875,0 C 6.1041606,5.2708411 6.9166597,5.2239661 7.8125,5.171875 7.8229088,5.046883 7.8281172,4.9270914 7.828125,4.8125 L 7.8125,4.234375 c -0.479174,8.8e-6 -0.9843818,0.020842 -1.515625,0.0625 -0.4479225,8.7e-6 -0.7760472,8.7e-6 -0.984375,0 0.010411,0.416675 0.01562,0.7552163 0.015625,1.015625 M 5.3125,3.609375 l 0,0 c 0.7395773,-0.041657 1.5729098,-0.062491 2.5,-0.0625 l -0.015625,-1.125 c -0.1666743,1.06e-5 -0.3333408,1.06e-5 -0.5,0 -1.3020893,1.06e-5 -1.963547,0.1875104 -1.984375,0.5625 -5.3e-6,0.2604264 -5.3e-6,0.4687595 0,0.625"
       style="font-size:16px;font-weight:bold;fill:#dcd8d0;font-family:DFNewChuan-B5"
       id="path3347" />
  </g>
</svg>
