<?xml version="1.0" encoding="UTF-8" standalone="no"?>
<svg
   xmlns:dc="http://purl.org/dc/elements/1.1/"
   xmlns:cc="http://creativecommons.org/ns#"
   xmlns:rdf="http://www.w3.org/1999/02/22-rdf-syntax-ns#"
   xmlns:svg="http://www.w3.org/2000/svg"
   xmlns="http://www.w3.org/2000/svg"
   xmlns:sodipodi="http://sodipodi.sourceforge.net/DTD/sodipodi-0.dtd"
   xmlns:inkscape="http://www.inkscape.org/namespaces/inkscape"
   width="16px"
   height="16px"
   version="1.1"
   id="svg3388"
   inkscape:version="0.48.4 r9939"
   sodipodi:docname="鼠.svg">
  <metadata
     id="metadata3396">
    <rdf:RDF>
      <cc:Work
         rdf:about="">
        <dc:format>image/svg+xml</dc:format>
        <dc:type
           rdf:resource="http://purl.org/dc/dcmitype/StillImage" />
      </cc:Work>
    </rdf:RDF>
  </metadata>
  <defs
     id="defs3394" />
  <sodipodi:namedview
     pagecolor="#ffffff"
     bordercolor="#666666"
     borderopacity="1"
     objecttolerance="10"
     gridtolerance="10"
     guidetolerance="10"
     inkscape:pageopacity="0"
     inkscape:pageshadow="2"
     inkscape:window-width="640"
     inkscape:window-height="480"
     id="namedview3392"
     showgrid="false"
     inkscape:zoom="14.75"
     inkscape:cx="8"
     inkscape:cy="8"
     inkscape:window-x="65"
     inkscape:window-y="24"
     inkscape:window-maximized="0"
     inkscape:current-layer="svg3388" />
  <g
     style="font-size:16px;font-weight:bold;fill:#dcd8d0;font-family:DFNewChuan-B5"
     id="text3390">
    <path
       d="m 10.859375,4.921875 0,0 c -0.04168,0.041675 -0.09376,0.062508 -0.15625,0.0625 C 10.505198,4.984383 10.291656,4.9270914 10.0625,4.8125 9.6874903,4.6875083 9.2656157,4.5364668 8.796875,4.359375 8.6718663,4.2760504 8.6093664,4.1770922 8.609375,4.0625 8.6093664,3.8854258 8.7187413,3.7760509 8.9375,3.734375 c 0.2291575,9.3e-6 0.4791573,0.046884 0.75,0.140625 0.46874,0.2083422 0.859364,0.3698004 1.171875,0.484375 L 10.890625,3.4375 C 10.890614,3.2187598 10.630198,3.0104267 10.109375,2.8125 9.7551986,2.6458437 9.4010323,2.4948022 9.046875,2.359375 8.8072829,2.2760524 8.6874913,2.1770942 8.6875,2.0625 8.7395746,1.7604279 8.9010328,1.6093864 9.171875,1.609375 c 0.1666573,1.14e-5 0.5572819,0.1510529 1.171875,0.453125 0.447906,0.1979274 0.822905,0.4479272 1.125,0.75 0.124988,0.1145934 0.187488,0.2812599 0.1875,0.5 L 11.625,5.5625 C 11.624988,6.4375066 10.37499,6.8750061 7.875,6.875 5.4999945,6.8750061 4.2968707,6.4531315 4.265625,5.609375 L 4.234375,3.5 C 4.2656207,3.1562598 4.3593706,2.9270934 4.515625,2.8125 4.8177035,2.5937604 5.2395781,2.3437607 5.78125,2.0625 6.2499937,1.7187613 6.5572851,1.5468865 6.703125,1.546875 c 0.2708264,0.041678 0.4062429,0.2135529 0.40625,0.515625 -7.1e-6,0.1145942 -0.1354236,0.2343857 -0.40625,0.359375 -0.385423,0.1770937 -0.7812559,0.3645935 -1.1875,0.5625 -0.3229219,0.083343 -0.48438,0.2708431 -0.484375,0.5625 l 0.015625,0.75 c 0.020828,8.7e-6 0.04687,8.7e-6 0.078125,0 0.072912,-0.041658 0.3802028,-0.1197828 0.921875,-0.234375 0.57291,-0.1770742 0.906243,-0.2656158 1,-0.265625 0.239576,0.052093 0.3593676,0.1823007 0.359375,0.390625 -7.4e-6,0.1562587 -0.1093823,0.2552169 -0.328125,0.296875 -1.1145893,0.3333415 -1.7239637,0.500008 -1.828125,0.5 -0.083338,8e-6 -0.1510468,-0.020825 -0.203125,-0.0625 L 5.0625,5.375 c 0.031245,0.5000071 0.9791606,0.7500069 2.84375,0.75 1.9583235,6.9e-6 2.937489,-0.2291596 2.9375,-0.6875 l 0.01563,-0.515625 m -0.734375,2.1875 0,0 c 0.177073,0.041672 0.307281,0.088547 0.390625,0.140625 0.374989,0.5833385 0.572906,1.1822962 0.59375,1.796875 -1.1e-5,0.4166702 -0.02084,0.8177115 -0.0625,1.203125 -0.06251,0.531252 -0.09376,0.927085 -0.09375,1.1875 -1.1e-5,0.656251 0.270822,1.322917 0.8125,2 0.739571,0.656249 1.109362,1.072915 1.109375,1.25 -1.3e-5,0.281248 -0.145846,0.421873 -0.4375,0.421875 -0.177096,-2e-6 -0.328137,-0.07813 -0.453125,-0.234375 -1.083344,-1.083334 -1.697927,-2.208333 -1.84375,-3.375 0.01041,-0.416665 0.04166,-0.817706 0.09375,-1.203125 0.05207,-0.3749969 0.07812,-0.7499965 0.07813,-1.125 -10e-6,-0.156246 -0.06772,-0.4270791 -0.203125,-0.8125 -0.2083432,-0.3229117 -0.3125098,-0.5729115 -0.3125,-0.75 0.020824,-0.2395777 0.1301984,-0.4062442 0.328125,-0.5 m -4.90625,1.875 0,0 C 5.2187448,9.3281287 5.2135365,9.66667 5.203125,10 c 0.145828,0.04167 0.2968695,0.125003 0.453125,0.25 0.3541607,0.208336 0.6510354,0.416669 0.890625,0.625 0.083327,0.114585 0.1249933,0.213544 0.125,0.296875 -6.7e-6,0.218752 -0.093757,0.328127 -0.28125,0.328125 -0.1562562,2e-6 -0.3177144,-0.08333 -0.484375,-0.25 -0.2187557,-0.177081 -0.4583388,-0.343748 -0.71875,-0.5 -5.2e-6,0.281252 -0.00521,0.588543 -0.015625,0.921875 -5.2e-6,0.343751 0.145828,0.614584 0.4375,0.8125 0.1562442,0.09375 0.3072857,0.161459 0.453125,0.203125 0.1249938,0.08333 0.2447854,0.145834 0.359375,0.1875 0.1874934,0.07292 0.2812433,0.197917 0.28125,0.375 -6.7e-6,0.25 -0.1510482,0.374999 -0.453125,0.375 -0.3020893,-10e-7 -0.7291722,-0.192709 -1.28125,-0.578125 -0.3541713,-0.197917 -0.5364628,-0.635416 -0.546875,-1.3125 -4.4e-6,-1.333331 0.015621,-2.6666627 0.046875,-4 C 4.4687455,7.5364638 4.5885371,7.3958389 4.828125,7.3125 5.1093699,7.3958389 5.2499947,7.5156305 5.25,7.671875 c -0.010422,0.2187551 -0.01563,0.4270882 -0.015625,0.625 0.145828,4.7e-6 0.3072861,0.062505 0.484375,0.1875 0.3541606,0.2604209 0.6666603,0.468754 0.9375,0.625 0.07291,0.1354204 0.1093682,0.2447953 0.109375,0.328125 -6.8e-6,0.19792 -0.093757,0.2968783 -0.28125,0.296875 C 6.317702,9.7343783 6.1458272,9.6562533 5.96875,9.5 5.7395776,9.333337 5.4895778,9.1614622 5.21875,8.984375 m 2.796875,0.0625 0,0 C 8.0052003,9.4218786 7.999992,9.8020865 8,10.1875 c 0.020825,3e-6 0.046867,-0.02083 0.078125,-0.0625 0.1770751,0.04167 0.3645749,0.140628 0.5625,0.296875 0.3645743,0.260419 0.6718657,0.489585 0.921875,0.6875 0.083324,0.135418 0.1249903,0.244793 0.125,0.328125 -9.7e-6,0.197918 -0.098968,0.296876 -0.296875,0.296875 -0.1458426,10e-7 -0.3125091,-0.07812 -0.5,-0.234375 -0.2604253,-0.218748 -0.5625083,-0.447915 -0.90625,-0.6875 -8e-6,0.239585 -8e-6,0.468752 0,0.6875 -8e-6,0.416668 0.1510335,0.744792 0.453125,0.984375 0.1562414,0.09375 0.3072829,0.182292 0.453125,0.265625 0.1354076,0.08333 0.2551992,0.145833 0.359375,0.1875 0.1979072,0.07292 0.2968655,0.197917 0.296875,0.375 -9.5e-6,0.239583 -0.1458427,0.359374 -0.4375,0.359375 -0.3229255,-10e-7 -0.760425,-0.208334 -1.3125,-0.625 -0.3645908,-0.239583 -0.5520906,-0.713541 -0.5625,-1.421875 -7.2e-6,-1.302081 -7.2e-6,-2.5989544 0,-3.890625 -7.2e-6,-0.1979112 0.1249926,-0.3177027 0.375,-0.359375 0.2812421,0.083339 0.421867,0.2031304 0.421875,0.359375 -0.010425,0.218755 -0.015633,0.4270882 -0.015625,0.625 0.1770751,0.041671 0.3697833,0.1302128 0.578125,0.265625 0.406241,0.2395875 0.739574,0.4687539 1,0.6875 0.09374,0.083337 0.1406153,0.1822952 0.140625,0.296875 -9.7e-6,0.2187532 -0.1041763,0.3281281 -0.3125,0.328125 -0.1562593,3.1e-6 -0.3333424,-0.088539 -0.53125,-0.265625 -0.2604253,-0.1979131 -0.5520917,-0.4062463 -0.875,-0.625"
       style="font-size:16px;font-weight:bold;fill:#dcd8d0;font-family:DFNewChuan-B5"
       id="path3399" />
  </g>
</svg>
