<?xml version="1.0" encoding="UTF-8" standalone="no"?>
<svg
   xmlns:dc="http://purl.org/dc/elements/1.1/"
   xmlns:cc="http://creativecommons.org/ns#"
   xmlns:rdf="http://www.w3.org/1999/02/22-rdf-syntax-ns#"
   xmlns:svg="http://www.w3.org/2000/svg"
   xmlns="http://www.w3.org/2000/svg"
   xmlns:sodipodi="http://sodipodi.sourceforge.net/DTD/sodipodi-0.dtd"
   xmlns:inkscape="http://www.inkscape.org/namespaces/inkscape"
   width="16px"
   height="16px"
   version="1.1"
   id="svg3440"
   inkscape:version="0.48.4 r9939"
   sodipodi:docname="é¾.svg">
  <metadata
     id="metadata3448">
    <rdf:RDF>
      <cc:Work
         rdf:about="">
        <dc:format>image/svg+xml</dc:format>
        <dc:type
           rdf:resource="http://purl.org/dc/dcmitype/StillImage" />
      </cc:Work>
    </rdf:RDF>
  </metadata>
  <defs
     id="defs3446" />
  <sodipodi:namedview
     pagecolor="#ffffff"
     bordercolor="#666666"
     borderopacity="1"
     objecttolerance="10"
     gridtolerance="10"
     guidetolerance="10"
     inkscape:pageopacity="0"
     inkscape:pageshadow="2"
     inkscape:window-width="640"
     inkscape:window-height="480"
     id="namedview3444"
     showgrid="false"
     inkscape:zoom="14.75"
     inkscape:cx="8"
     inkscape:cy="8"
     inkscape:window-x="65"
     inkscape:window-y="24"
     inkscape:window-maximized="0"
     inkscape:current-layer="svg3440" />
  <g
     style="font-size:16px;font-weight:bold;fill:#dcd8d0;font-family:DFNewChuan-B5"
     id="text3442">
    <path
       d="m 5.09375,5.3125 0,0 L 4.828125,3.734375 C 4.4843705,3.8698008 4.2708291,3.9375091 4.1875,3.9375 3.8958294,3.9375091 3.7395796,3.7708426 3.71875,3.4375 3.7395796,3.3125097 3.8020795,3.2239681 3.90625,3.171875 4.3124957,3.0885516 4.7395786,2.96876 5.1875,2.8125 5.4583279,2.7708436 5.5937444,2.6406354 5.59375,2.421875 l 0,-0.75 C 5.6770777,1.5156365 5.8229108,1.4166783 6.03125,1.375 c 0.2395771,1.16e-5 0.3906186,0.09897 0.453125,0.296875 l 0,0.6875 c -6.5e-6,0.260427 0.16666,0.4323019 0.5,0.515625 C 7.5052008,2.9895933 7.9270754,3.0885516 8.25,3.171875 8.4270749,3.2239681 8.5156165,3.348968 8.515625,3.546875 8.4739499,3.8073009 8.3541583,3.9375091 8.15625,3.9375 8.031242,3.9375091 7.8124922,3.8906341 7.5,3.796875 7.4062426,4.2135505 7.302076,4.7187583 7.1875,5.3125 c 0.3437425,7.7e-6 0.7031171,7.7e-6 1.078125,0 0.2708248,0.041674 0.4062413,0.1406325 0.40625,0.296875 C 8.6718663,5.8697988 8.5364498,6.000007 8.265625,6 c -0.6250076,7e-6 -1.3593819,7e-6 -2.203125,0 -0.6145888,7e-6 -1.3281297,0.02084 -2.140625,0.0625 C 3.651038,6.0625069 3.5052048,5.9322987 3.484375,5.671875 3.4843715,5.5572991 3.6041631,5.4583409 3.84375,5.375 4.1249959,5.333341 4.5416621,5.3125077 5.09375,5.3125 m 1.421875,0 0,0 C 6.6718683,4.5937584 6.7812432,4.0052173 6.84375,3.546875 6.4687435,3.3906346 6.2291604,3.3125097 6.125,3.3125 6.0104107,3.3125097 5.7864525,3.3750096 5.453125,3.5 l 0.28125,1.8125 c 0.083328,-0.041659 0.1666608,-0.062492 0.25,-0.0625 0.1666605,7.7e-6 0.3437437,0.020841 0.53125,0.0625 M 9.9375,3.171875 l 0,0 C 9.9374901,3.4218846 9.9322817,3.697926 9.921875,4 10.015615,3.9583424 10.12499,3.9375091 10.25,3.9375 L 11.171875,4 c 0.312489,9e-6 0.55728,0.078134 0.734375,0.234375 0.229155,0.1666753 0.343738,0.3958417 0.34375,0.6875 -1.2e-5,0.1666746 -1.2e-5,0.3593827 0,0.578125 -0.01043,0.4895903 -0.197929,0.7552151 -0.5625,0.796875 l -1.140625,0.0625 C 10.244781,6.3593816 10.03124,6.4479232 9.90625,6.625 10.604156,6.9895893 11.453114,7.1718808 12.453125,7.171875 12.640612,7.2239641 12.734362,7.333339 12.734375,7.5 12.734362,7.7500052 12.593737,7.8750051 12.3125,7.875 11.218739,7.8229218 10.37499,7.635422 9.78125,7.3125 l 0,0.625 c 0.729156,0.364588 1.61978,0.5468795 2.671875,0.546875 C 12.651029,8.5364628 12.749987,8.6458377 12.75,8.8125 12.749987,9.0520873 12.604154,9.1718788 12.3125,9.171875 11.218739,9.1302122 10.369781,8.968754 9.765625,8.6875 L 9.75,9.3125 c 0.781239,0.4166699 1.729155,0.6250031 2.84375,0.625 0.187487,0.04167 0.281237,0.161461 0.28125,0.359375 -1.3e-5,0.260419 -0.135429,0.390627 -0.40625,0.390625 -1.187511,-0.08333 -2.098969,-0.291664 -2.734375,-0.625 l 0,0.359375 c 0.03124,0.302086 0.1822818,0.510419 0.453125,0.625 0.489573,0.218752 0.843739,0.390627 1.0625,0.515625 0.958321,0.458334 1.437487,1.390625 1.4375,2.796875 -1.3e-5,0.385415 -0.156263,0.578123 -0.46875,0.578125 -0.250012,-0.04167 -0.375012,-0.234377 -0.375,-0.578125 C 11.843738,13.203125 11.447905,12.416667 10.65625,12 10.333323,11.822918 10.03124,11.677085 9.75,11.5625 9.2083241,11.354168 8.9374911,10.97396 8.9375,10.421875 8.9583244,9.5885451 8.984366,8.3854213 9.015625,6.8125 c 0.1458242,-0.7604097 0.6458237,-1.1406177 1.5,-1.140625 l 0.84375,-0.0625 c 0.06249,7.4e-6 0.09374,-0.2083257 0.09375,-0.625 C 11.453114,4.7864665 11.255197,4.6875083 10.859375,4.6875 L 9.890625,4.75 C 9.8489485,4.7083416 9.8124902,4.6875083 9.78125,4.6875 9.7187403,4.7708416 9.6249904,4.8125082 9.5,4.8125 9.2604074,4.8125082 9.1301992,4.5625084 9.109375,4.0625 9.1093659,3.2708431 9.1301992,2.5156355 9.171875,1.796875 9.1926991,1.4739699 9.3124907,1.3125117 9.53125,1.3125 c 0.2812402,1.17e-5 0.4322817,0.1406365 0.453125,0.421875 -0.010427,0.2604277 -0.020843,0.5104274 -0.03125,0.75 0.614573,-0.041656 1.359364,-0.062489 2.234375,-0.0625 0.229154,1.06e-5 0.364571,0.1093855 0.40625,0.328125 -1.3e-5,0.2395933 -0.135429,0.3593849 -0.40625,0.359375 -0.895845,9.9e-6 -1.645844,0.020843 -2.25,0.0625 m -4.765625,5.125 0,0 C 5.1093699,8.380213 5.0416616,8.4895878 4.96875,8.625 4.8749951,8.7916709 4.7864535,8.9739624 4.703125,9.171875 c 0.093745,3.8e-6 0.1979118,0.046879 0.3125,0.140625 C 5.380203,9.4791702 5.697911,9.6406284 5.96875,9.796875 6.0208273,9.8489615 6.0520773,9.9166698 6.0625,10 6.2083271,9.7083366 6.3749936,9.3697953 6.5625,8.984375 6.4374936,8.984379 6.302077,8.9270874 6.15625,8.8125 5.8749941,8.6458377 5.5572861,8.4739629 5.203125,8.296875 c -0.010422,4.7e-6 -0.020838,4.7e-6 -0.03125,0 m 1.703125,0.125 0,0 C 7.0729096,8.0989632 7.1718678,7.8281302 7.171875,7.609375 7.1718678,7.5364638 7.015618,7.4375056 6.703125,7.3125 6.4427019,7.1354225 6.2291604,7.046881 6.0625,7.046875 c -0.083339,6e-6 -0.2656308,0.2083391 -0.546875,0.625 0.135411,0.041672 0.2708275,0.1093802 0.40625,0.203125 0.364577,0.1666716 0.6666601,0.3281298 0.90625,0.484375 0.020827,4.6e-6 0.036452,0.020838 0.046875,0.0625 m -2.453125,1.375 0,0 c -0.1979209,0.416669 -0.375004,0.854169 -0.53125,1.3125 -0.062504,0.135418 -0.177087,0.203127 -0.34375,0.203125 -0.2395866,2e-6 -0.3593782,-0.124998 -0.359375,-0.375 -3.2e-6,-0.124998 0.2031216,-0.645831 0.609375,-1.5625 0.6041623,-1.2083285 1.1458284,-2.1458276 1.625,-2.8125 -5.4e-6,-0.3333266 0.1770777,-0.4999931 0.53125,-0.5 0.1041606,6.9e-6 0.1979105,0.02084 0.28125,0.0625 0.145827,0.1562567 0.2864518,0.255215 0.421875,0.296875 0.8645758,0.4583395 1.296867,0.8385474 1.296875,1.140625 -8e-6,0.4166717 -0.1197995,0.7916713 -0.359375,1.125 -0.4166738,0.6979203 -0.7708402,1.406253 -1.0625,2.125 -0.1250064,0.375002 -0.244798,0.812501 -0.359375,1.3125 -0.083339,0.697917 -0.125006,1.463541 -0.125,2.296875 C 6.015619,14.640623 5.8958274,14.749998 5.6875,14.75 5.5520778,14.749998 5.4531195,14.687498 5.390625,14.5625 5.317703,14.427082 5.2708281,14.218749 5.25,13.9375 c 0.020828,-1.333333 0.2395778,-2.505207 0.65625,-3.515625 -0.031256,3e-6 -0.072922,3e-6 -0.125,0 -0.1562556,3e-6 -0.3229221,-0.05729 -0.5,-0.171875 C 5.0208283,10.083336 4.7343703,9.9322947 4.421875,9.796875"
       style="font-size:16px;font-weight:bold;fill:#dcd8d0;font-family:DFNewChuan-B5"
       id="path3451" />
  </g>
</svg>
